<svg xmlns="http://www.w3.org/2000/svg" xmlns:xlink="http://www.w3.org/1999/xlink" width="500" zoomAndPan="magnify" viewBox="0 0 375 374.999991" height="500" preserveAspectRatio="xMidYMid meet" version="1.0"><defs><clipPath id="f6e2cdb577"><path d="M 87 79 L 289 79 L 289 250 L 87 250 Z M 87 79 " clip-rule="nonzero"/></clipPath><clipPath id="6c21857d91"><path d="M 82.128906 81.722656 L 215.996094 32.875 L 292.609375 242.835938 L 158.742188 291.683594 Z M 82.128906 81.722656 " clip-rule="nonzero"/></clipPath><clipPath id="fb8af5d43d"><path d="M 82.128906 81.722656 L 215.996094 32.875 L 292.609375 242.835938 L 158.742188 291.683594 Z M 82.128906 81.722656 " clip-rule="nonzero"/></clipPath></defs><g clip-path="url(#f6e2cdb577)"><g clip-path="url(#6c21857d91)"><g clip-path="url(#fb8af5d43d)"><path fill="#4682b4" d="M 271.917969 197.621094 C 266.992188 188.96875 258.382812 183.140625 248.226562 183.546875 C 239.183594 183.910156 231.160156 188.792969 225.460938 195.601562 C 223.398438 196.074219 221.382812 196.730469 219.480469 197.539062 C 208.664062 202.15625 199.25 209.652344 191.050781 217.964844 C 183.445312 225.675781 174.828125 235.847656 163 235.769531 C 154.121094 235.707031 146.894531 229.253906 142.441406 222.089844 C 137.207031 213.667969 134.105469 202.046875 137.925781 192.515625 C 141.875 182.667969 151.421875 175.835938 161.132812 172.375 C 166.789062 170.359375 172.664062 169.550781 178.652344 169.613281 C 184.261719 169.671875 189.925781 170.175781 195.4375 168.835938 C 204.367188 166.664062 210.472656 159.320312 213.160156 150.808594 C 219.136719 131.875 208.628906 108.746094 189.292969 102.683594 C 179.304688 99.550781 168.972656 101.492188 160.679688 107.824219 C 151.601562 114.753906 145.488281 124.953125 135.644531 130.96875 C 131.078125 133.757812 125.746094 135.363281 120.386719 134.363281 C 115.675781 133.488281 111.550781 130.804688 108.136719 127.53125 C 100.234375 119.964844 95.40625 109 92.902344 98.511719 C 91.5625 92.898438 90.972656 87.132812 91.023438 81.371094 C 91.039062 79.351562 87.925781 79.625 87.90625 81.621094 C 87.816406 92.859375 90.289062 104.105469 95.203125 114.222656 C 99.160156 122.375 104.671875 130.375 112.765625 134.863281 C 121.492188 139.699219 131.183594 137.875 139.152344 132.410156 C 148.074219 126.296875 153.941406 116.898438 162.496094 110.371094 C 170.867188 103.976562 181.429688 102.535156 191.167969 106.683594 C 200.714844 110.75 207.335938 119.53125 210.222656 129.328125 C 212.796875 138.078125 212.210938 147.933594 207.546875 155.902344 C 205.332031 159.683594 202.046875 162.957031 197.984375 164.707031 C 193.121094 166.808594 187.742188 166.726562 182.550781 166.59375 C 177.003906 166.453125 171.609375 166.492188 166.164062 167.699219 C 160.964844 168.851562 155.988281 170.808594 151.386719 173.5 C 143.296875 178.234375 136.171875 185.640625 133.882812 194.949219 C 131.660156 203.980469 134.398438 214.078125 138.804688 222.042969 C 142.664062 229.027344 148.703125 235.351562 156.457031 237.820312 C 165.847656 240.8125 174.984375 236.839844 182.203125 230.820312 C 186.390625 227.332031 190.109375 223.332031 193.9375 219.464844 C 197.992188 215.375 202.300781 211.597656 207.011719 208.277344 C 211.472656 205.128906 216.859375 201.625 222.527344 199.5625 C 217.71875 206.902344 212.992188 218.320312 220.535156 225.25 C 226.933594 231.128906 237.585938 229.078125 243.585938 223.765625 C 250.148438 217.945312 252.90625 207.878906 246.5625 200.820312 C 242.265625 196.042969 236.335938 194.484375 230.355469 194.863281 C 230.699219 194.53125 231.042969 194.199219 231.398438 193.875 C 238.871094 187.214844 250.070312 184.140625 259.296875 189.070312 C 268.484375 193.980469 272.710938 204.570312 274.066406 214.363281 C 274.839844 219.945312 274.894531 225.59375 274.949219 231.222656 C 274.96875 233.238281 278.082031 232.96875 278.066406 230.96875 C 277.953125 219.613281 277.6875 207.75 271.917969 197.617188 Z M 237.554688 198.683594 C 241.734375 200.050781 245.601562 203.109375 246.769531 207.5 C 247.917969 211.796875 246.148438 216.289062 243.371094 219.558594 C 238.386719 225.429688 226.234375 229.128906 221.179688 221.207031 C 218.25 216.621094 220.253906 210.511719 222.421875 206.0625 C 223.773438 203.292969 225.410156 200.632812 227.339844 198.207031 C 230.75 197.558594 234.199219 197.589844 237.558594 198.683594 Z M 288.507812 236.21875 C 284.605469 240.980469 280.199219 245.308594 275.378906 249.140625 C 274.785156 249.613281 273.582031 249.496094 273.199219 248.773438 C 269.960938 242.675781 266.722656 236.585938 263.484375 230.488281 C 263.082031 229.738281 263.089844 228.851562 263.847656 228.308594 C 264.46875 227.859375 265.632812 227.929688 266.027344 228.671875 C 269 234.261719 271.96875 239.847656 274.9375 245.4375 C 279.003906 242.054688 282.746094 238.316406 286.101562 234.222656 C 287.382812 232.664062 289.785156 234.664062 288.507812 236.214844 Z M 288.507812 236.21875 " fill-opacity="1" fill-rule="nonzero"/></g></g></g></svg>