<svg xmlns="http://www.w3.org/2000/svg" xmlns:xlink="http://www.w3.org/1999/xlink" width="500" zoomAndPan="magnify" viewBox="0 0 375 374.999991" height="500" preserveAspectRatio="xMidYMid meet" version="1.0"><defs><clipPath id="5943351dc7"><path d="M 294 237 L 317.851562 237 L 317.851562 262 L 294 262 Z M 294 237 " clip-rule="nonzero"/></clipPath><clipPath id="085fef25f0"><path d="M 80.101562 108 L 88 108 L 88 112 L 80.101562 112 Z M 80.101562 108 " clip-rule="nonzero"/></clipPath><clipPath id="77fa147522"><path d="M 92 110 L 308 110 L 308 266.9375 L 92 266.9375 Z M 92 110 " clip-rule="nonzero"/></clipPath></defs><g clip-path="url(#5943351dc7)"><path fill="#4682b4" d="M 295.109375 240.886719 L 300.484375 257.597656 C 300.644531 258.09375 300.875 258.558594 301.175781 258.988281 C 301.472656 259.417969 301.828125 259.792969 302.242188 260.113281 C 302.65625 260.4375 303.105469 260.691406 303.59375 260.878906 C 304.082031 261.0625 304.589844 261.175781 305.109375 261.210938 C 305.632812 261.242188 306.148438 261.199219 306.65625 261.082031 C 307.164062 260.960938 307.644531 260.769531 308.09375 260.503906 C 308.542969 260.238281 308.945312 259.914062 309.296875 259.527344 C 309.652344 259.140625 309.941406 258.714844 310.164062 258.242188 L 317.6875 242.378906 C 317.769531 242.203125 317.832031 242.015625 317.871094 241.824219 C 317.910156 241.632812 317.925781 241.4375 317.914062 241.242188 C 317.90625 241.042969 317.875 240.851562 317.816406 240.664062 C 317.761719 240.476562 317.683594 240.296875 317.585938 240.128906 C 317.484375 239.957031 317.367188 239.804688 317.230469 239.664062 C 317.09375 239.523438 316.941406 239.402344 316.773438 239.296875 C 316.605469 239.195312 316.429688 239.113281 316.242188 239.050781 C 316.054688 238.992188 315.863281 238.957031 315.667969 238.941406 C 314.957031 238.894531 314.34375 239.117188 313.832031 239.613281 L 309.984375 243.332031 C 309.738281 243.566406 309.46875 243.777344 309.179688 243.957031 C 308.890625 244.136719 308.585938 244.289062 308.261719 244.40625 C 307.941406 244.523438 307.613281 244.605469 307.273438 244.65625 C 306.9375 244.707031 306.597656 244.71875 306.257812 244.699219 C 305.914062 244.675781 305.582031 244.621094 305.25 244.53125 C 304.921875 244.441406 304.605469 244.316406 304.300781 244.160156 C 303.996094 244.003906 303.710938 243.816406 303.449219 243.601562 C 303.183594 243.386719 302.941406 243.144531 302.726562 242.878906 L 299.289062 238.644531 C 298.84375 238.097656 298.269531 237.796875 297.566406 237.75 C 297.371094 237.738281 297.175781 237.75 296.984375 237.785156 C 296.789062 237.816406 296.605469 237.875 296.425781 237.957031 C 296.246094 238.035156 296.078125 238.136719 295.921875 238.257812 C 295.769531 238.378906 295.632812 238.515625 295.511719 238.667969 C 295.390625 238.824219 295.289062 238.992188 295.207031 239.171875 C 295.128906 239.347656 295.070312 239.535156 295.035156 239.726562 C 295 239.921875 294.988281 240.117188 295 240.3125 C 295.011719 240.507812 295.046875 240.699219 295.109375 240.886719 Z M 295.109375 240.886719 " fill-opacity="1" fill-rule="nonzero"/></g><g clip-path="url(#085fef25f0)"><path fill="#4682b4" d="M 81.90625 108.054688 C 81.945312 108.054688 81.988281 108.054688 82.023438 108.054688 C 82.0625 108.054688 83.695312 108.171875 86.378906 108.554688 C 86.601562 108.585938 86.8125 108.660156 87.007812 108.773438 C 87.203125 108.890625 87.367188 109.039062 87.503906 109.21875 C 87.640625 109.398438 87.734375 109.597656 87.792969 109.816406 C 87.847656 110.035156 87.859375 110.257812 87.828125 110.480469 C 87.796875 110.707031 87.722656 110.914062 87.609375 111.109375 C 87.492188 111.304688 87.347656 111.46875 87.164062 111.605469 C 86.984375 111.742188 86.785156 111.839844 86.566406 111.894531 C 86.347656 111.949219 86.125 111.964844 85.902344 111.933594 C 83.347656 111.570312 81.804688 111.457031 81.789062 111.457031 C 81.570312 111.4375 81.367188 111.378906 81.171875 111.28125 C 80.976562 111.179688 80.808594 111.050781 80.664062 110.886719 C 80.519531 110.722656 80.410156 110.539062 80.335938 110.332031 C 80.265625 110.128906 80.230469 109.917969 80.238281 109.699219 C 80.246094 109.480469 80.292969 109.273438 80.382812 109.074219 C 80.46875 108.875 80.589844 108.695312 80.746094 108.542969 C 80.898438 108.390625 81.078125 108.269531 81.277344 108.1875 C 81.480469 108.101562 81.6875 108.054688 81.90625 108.050781 Z M 81.90625 108.054688 " fill-opacity="1" fill-rule="nonzero"/></g><g clip-path="url(#77fa147522)"><path fill="#4682b4" d="M 94.46875 110.070312 C 94.597656 110.070312 94.726562 110.085938 94.851562 110.113281 C 97.679688 110.746094 100.480469 111.492188 103.175781 112.324219 C 103.390625 112.390625 103.585938 112.496094 103.761719 112.640625 C 103.933594 112.785156 104.074219 112.957031 104.179688 113.160156 C 104.285156 113.359375 104.347656 113.570312 104.371094 113.796875 C 104.390625 114.023438 104.367188 114.242188 104.300781 114.457031 C 104.234375 114.675781 104.128906 114.871094 103.984375 115.042969 C 103.839844 115.21875 103.667969 115.355469 103.46875 115.460938 C 103.265625 115.566406 103.054688 115.632812 102.828125 115.652344 C 102.605469 115.671875 102.382812 115.648438 102.167969 115.582031 C 99.558594 114.777344 96.84375 114.054688 94.105469 113.441406 C 93.898438 113.394531 93.707031 113.316406 93.53125 113.199219 C 93.351562 113.085938 93.203125 112.941406 93.082031 112.769531 C 92.957031 112.597656 92.867188 112.410156 92.816406 112.203125 C 92.761719 112 92.746094 111.792969 92.769531 111.582031 C 92.792969 111.375 92.855469 111.175781 92.953125 110.988281 C 93.050781 110.800781 93.179688 110.636719 93.335938 110.496094 C 93.496094 110.355469 93.675781 110.25 93.875 110.175781 C 94.070312 110.105469 94.277344 110.070312 94.488281 110.070312 Z M 110.644531 115.101562 C 110.867188 115.101562 111.085938 115.144531 111.292969 115.230469 C 113.964844 116.320312 116.574219 117.546875 119.117188 118.914062 C 119.316406 119.019531 119.488281 119.160156 119.632812 119.335938 C 119.773438 119.511719 119.878906 119.707031 119.945312 119.921875 C 120.007812 120.140625 120.03125 120.359375 120.007812 120.585938 C 119.984375 120.808594 119.921875 121.019531 119.8125 121.21875 C 119.707031 121.417969 119.566406 121.589844 119.390625 121.734375 C 119.214844 121.875 119.019531 121.980469 118.804688 122.046875 C 118.585938 122.109375 118.367188 122.132812 118.140625 122.109375 C 117.917969 122.085938 117.707031 122.023438 117.507812 121.914062 C 115.0625 120.601562 112.558594 119.421875 109.992188 118.367188 C 109.617188 118.210938 109.335938 117.953125 109.140625 117.597656 C 108.949219 117.238281 108.894531 116.859375 108.972656 116.460938 C 109.050781 116.0625 109.246094 115.734375 109.558594 115.472656 C 109.871094 115.214844 110.234375 115.085938 110.640625 115.082031 Z M 125.515625 123.164062 C 125.878906 123.164062 126.207031 123.269531 126.503906 123.476562 C 128.878906 125.164062 131.117188 127.019531 133.21875 129.039062 C 133.382812 129.195312 133.507812 129.378906 133.597656 129.585938 C 133.6875 129.792969 133.734375 130.007812 133.738281 130.234375 C 133.742188 130.460938 133.703125 130.679688 133.621094 130.890625 C 133.539062 131.097656 133.417969 131.285156 133.261719 131.449219 C 133.105469 131.609375 132.921875 131.738281 132.714844 131.828125 C 132.507812 131.917969 132.289062 131.964844 132.066406 131.96875 C 131.839844 131.972656 131.621094 131.933594 131.410156 131.851562 C 131.199219 131.765625 131.011719 131.648438 130.851562 131.492188 C 128.871094 129.589844 126.765625 127.84375 124.527344 126.257812 C 124.222656 126.042969 124.011719 125.761719 123.894531 125.40625 C 123.777344 125.054688 123.773438 124.703125 123.886719 124.347656 C 124 123.996094 124.207031 123.710938 124.507812 123.492188 C 124.808594 123.273438 125.144531 123.164062 125.515625 123.164062 Z M 137.59375 134.933594 C 138.171875 134.933594 138.632812 135.167969 138.972656 135.636719 C 140.699219 138.015625 142.1875 140.535156 143.4375 143.191406 C 143.535156 143.398438 143.589844 143.613281 143.597656 143.839844 C 143.609375 144.0625 143.574219 144.285156 143.5 144.496094 C 143.421875 144.707031 143.308594 144.898438 143.15625 145.066406 C 143.003906 145.230469 142.824219 145.363281 142.621094 145.460938 C 142.414062 145.554688 142.199219 145.609375 141.972656 145.617188 C 141.75 145.628906 141.53125 145.597656 141.316406 145.519531 C 141.105469 145.441406 140.914062 145.328125 140.746094 145.175781 C 140.582031 145.023438 140.449219 144.84375 140.351562 144.640625 C 139.195312 142.175781 137.8125 139.84375 136.214844 137.644531 C 136.023438 137.382812 135.917969 137.09375 135.890625 136.773438 C 135.867188 136.453125 135.925781 136.152344 136.070312 135.867188 C 136.214844 135.578125 136.425781 135.351562 136.699219 135.1875 C 136.972656 135.019531 137.269531 134.933594 137.59375 134.933594 Z M 215.261719 137.777344 C 217.84375 137.792969 220.261719 138.429688 222.519531 139.6875 C 222.707031 139.800781 222.867188 139.945312 223 140.121094 C 223.132812 140.296875 223.230469 140.492188 223.285156 140.707031 C 223.34375 140.921875 223.359375 141.136719 223.332031 141.355469 C 223.304688 141.574219 223.238281 141.78125 223.132812 141.976562 C 223.027344 142.167969 222.886719 142.335938 222.714844 142.472656 C 222.542969 142.613281 222.351562 142.714844 222.140625 142.78125 C 221.929688 142.847656 221.714844 142.871094 221.492188 142.851562 C 221.273438 142.832031 221.066406 142.773438 220.867188 142.671875 C 219.125 141.691406 217.253906 141.203125 215.253906 141.203125 C 214.742188 141.203125 214.234375 141.238281 213.726562 141.304688 C 213.507812 141.324219 213.292969 141.304688 213.082031 141.242188 C 212.871094 141.175781 212.679688 141.078125 212.507812 140.941406 C 212.335938 140.804688 212.195312 140.640625 212.089844 140.449219 C 211.980469 140.257812 211.910156 140.054688 211.882812 139.835938 C 211.851562 139.617188 211.863281 139.402344 211.917969 139.1875 C 211.972656 138.976562 212.0625 138.78125 212.191406 138.601562 C 212.320312 138.425781 212.476562 138.277344 212.664062 138.160156 C 212.851562 138.042969 213.050781 137.964844 213.265625 137.925781 C 213.921875 137.835938 214.578125 137.792969 215.238281 137.792969 Z M 206.074219 141.597656 C 206.417969 141.59375 206.734375 141.6875 207.019531 141.878906 C 207.304688 142.066406 207.515625 142.316406 207.648438 142.632812 C 207.78125 142.949219 207.816406 143.273438 207.753906 143.613281 C 207.6875 143.949219 207.539062 144.238281 207.296875 144.484375 C 206.445312 145.351562 205.785156 146.347656 205.320312 147.46875 C 204.855469 148.589844 204.613281 149.761719 204.601562 150.976562 C 204.597656 151.199219 204.550781 151.414062 204.460938 151.621094 C 204.375 151.824219 204.25 152.007812 204.089844 152.164062 C 203.929688 152.320312 203.746094 152.441406 203.539062 152.523438 C 203.332031 152.609375 203.117188 152.652344 202.894531 152.652344 L 202.863281 152.652344 C 202.636719 152.648438 202.421875 152.601562 202.214844 152.511719 C 202.007812 152.421875 201.824219 152.292969 201.667969 152.132812 C 201.511719 151.96875 201.394531 151.78125 201.308594 151.574219 C 201.226562 151.363281 201.1875 151.144531 201.191406 150.917969 C 201.21875 149.277344 201.550781 147.695312 202.183594 146.179688 C 202.816406 144.660156 203.703125 143.3125 204.851562 142.136719 C 205.183594 141.785156 205.589844 141.609375 206.074219 141.609375 Z M 227.816406 145.210938 C 228.386719 145.207031 228.84375 145.4375 229.1875 145.898438 C 230.972656 148.316406 232.375 150.941406 233.386719 153.777344 C 233.449219 153.984375 233.472656 154.199219 233.453125 154.417969 C 233.433594 154.636719 233.375 154.84375 233.277344 155.039062 C 233.179688 155.234375 233.046875 155.40625 232.882812 155.550781 C 232.71875 155.695312 232.535156 155.804688 232.328125 155.878906 C 232.121094 155.949219 231.90625 155.984375 231.6875 155.976562 C 231.46875 155.96875 231.261719 155.917969 231.058594 155.828125 C 230.859375 155.742188 230.683594 155.617188 230.53125 155.460938 C 230.378906 155.304688 230.257812 155.125 230.175781 154.921875 C 229.277344 152.402344 228.03125 150.066406 226.433594 147.921875 C 226.296875 147.738281 226.203125 147.539062 226.148438 147.320312 C 226.09375 147.101562 226.082031 146.878906 226.113281 146.65625 C 226.148438 146.433594 226.222656 146.222656 226.339844 146.03125 C 226.453125 145.835938 226.601562 145.671875 226.785156 145.539062 C 227.09375 145.316406 227.4375 145.210938 227.816406 145.222656 Z M 144.75 150.167969 C 145.136719 150.167969 145.488281 150.289062 145.792969 150.527344 C 146.101562 150.765625 146.300781 151.074219 146.398438 151.449219 C 146.558594 152.074219 146.707031 152.714844 146.847656 153.359375 C 147.339844 155.652344 147.734375 157.867188 148.03125 159.96875 C 148.0625 160.191406 148.046875 160.410156 147.992188 160.628906 C 147.933594 160.847656 147.835938 161.046875 147.699219 161.226562 C 147.566406 161.410156 147.398438 161.554688 147.203125 161.671875 C 147.007812 161.785156 146.800781 161.855469 146.578125 161.886719 C 146.351562 161.917969 146.132812 161.90625 145.914062 161.851562 C 145.695312 161.792969 145.496094 161.695312 145.316406 161.558594 C 145.132812 161.425781 144.988281 161.257812 144.871094 161.0625 C 144.757812 160.871094 144.683594 160.660156 144.652344 160.4375 C 144.371094 158.421875 143.984375 156.28125 143.507812 154.074219 C 143.382812 153.484375 143.242188 152.890625 143.09375 152.308594 C 143.035156 152.089844 143.023438 151.867188 143.054688 151.644531 C 143.089844 151.421875 143.160156 151.210938 143.277344 151.019531 C 143.390625 150.824219 143.539062 150.65625 143.71875 150.523438 C 143.898438 150.386719 144.097656 150.289062 144.316406 150.230469 C 144.460938 150.191406 144.601562 150.171875 144.75 150.167969 Z M 205.304688 157.238281 C 205.617188 157.238281 205.910156 157.320312 206.179688 157.480469 C 206.449219 157.640625 206.660156 157.859375 206.808594 158.136719 C 206.894531 158.296875 206.957031 158.460938 207 158.636719 C 207.042969 158.8125 207.058594 158.988281 207.054688 159.167969 C 207.050781 159.347656 207.023438 159.523438 206.972656 159.695312 C 206.925781 159.867188 206.851562 160.03125 206.761719 160.1875 C 206.667969 160.339844 206.558594 160.480469 206.429688 160.605469 C 206.300781 160.730469 206.15625 160.835938 206 160.925781 C 205.84375 161.015625 205.679688 161.082031 205.507812 161.125 C 205.332031 161.171875 205.15625 161.195312 204.976562 161.191406 L 204.863281 161.191406 C 203.777344 161.164062 201.015625 161.609375 198.277344 162.90625 C 198.074219 163.003906 197.859375 163.058594 197.632812 163.070312 C 197.40625 163.078125 197.1875 163.046875 196.976562 162.96875 C 196.761719 162.894531 196.570312 162.78125 196.40625 162.628906 C 196.238281 162.476562 196.105469 162.300781 196.007812 162.09375 C 195.914062 161.890625 195.859375 161.675781 195.847656 161.449219 C 195.835938 161.226562 195.867188 161.003906 195.945312 160.792969 C 196.019531 160.582031 196.132812 160.390625 196.285156 160.222656 C 196.4375 160.054688 196.613281 159.921875 196.816406 159.824219 C 199.109375 158.734375 201.511719 158.0625 204.035156 157.808594 C 204.167969 157.660156 204.324219 157.539062 204.5 157.445312 C 204.75 157.308594 205.019531 157.242188 205.304688 157.238281 Z M 233.613281 160.914062 C 233.824219 160.914062 234.027344 160.953125 234.222656 161.027344 C 234.421875 161.105469 234.597656 161.210938 234.753906 161.351562 C 234.910156 161.492188 235.035156 161.660156 235.132812 161.847656 C 235.226562 162.035156 235.285156 162.234375 235.308594 162.441406 C 235.484375 164.207031 235.566406 165.972656 235.566406 167.746094 C 235.566406 168.839844 235.535156 169.988281 235.476562 171.164062 C 235.476562 171.398438 235.429688 171.621094 235.335938 171.835938 C 235.242188 172.046875 235.109375 172.234375 234.941406 172.394531 C 234.773438 172.554688 234.578125 172.675781 234.359375 172.757812 C 234.140625 172.835938 233.917969 172.871094 233.683594 172.859375 C 233.449219 172.847656 233.230469 172.789062 233.019531 172.6875 C 232.8125 172.585938 232.628906 172.445312 232.476562 172.269531 C 232.324219 172.09375 232.214844 171.894531 232.144531 171.675781 C 232.074219 171.453125 232.046875 171.226562 232.070312 170.992188 C 232.128906 169.875 232.152344 168.78125 232.152344 167.746094 C 232.160156 166.089844 232.078125 164.433594 231.917969 162.78125 C 231.894531 162.554688 231.914062 162.335938 231.980469 162.117188 C 232.042969 161.902344 232.148438 161.703125 232.292969 161.527344 C 232.433594 161.351562 232.605469 161.210938 232.808594 161.105469 C 233.007812 160.996094 233.21875 160.933594 233.445312 160.910156 C 233.496094 160.917969 233.554688 160.914062 233.613281 160.914062 Z M 191.167969 165.058594 C 191.492188 165.058594 191.792969 165.144531 192.070312 165.3125 C 192.261719 165.433594 192.421875 165.585938 192.554688 165.769531 C 192.6875 165.957031 192.777344 166.15625 192.828125 166.378906 C 192.878906 166.597656 192.886719 166.820312 192.847656 167.042969 C 192.8125 167.265625 192.730469 167.476562 192.613281 167.667969 C 191.964844 168.707031 191.519531 169.824219 191.273438 171.023438 C 191.019531 172.226562 190.894531 173.441406 190.890625 174.671875 L 190.890625 174.859375 C 190.882812 175.078125 190.835938 175.289062 190.746094 175.488281 C 190.65625 175.691406 190.535156 175.867188 190.378906 176.019531 C 190.21875 176.175781 190.039062 176.292969 189.835938 176.375 C 189.632812 176.460938 189.421875 176.503906 189.203125 176.507812 C 188.984375 176.507812 188.773438 176.46875 188.566406 176.390625 C 188.363281 176.3125 188.179688 176.195312 188.019531 176.046875 C 187.859375 175.898438 187.730469 175.722656 187.636719 175.523438 C 187.546875 175.324219 187.492188 175.117188 187.480469 174.898438 L 187.480469 174.671875 C 187.484375 173.210938 187.636719 171.761719 187.941406 170.332031 C 188.269531 168.734375 188.863281 167.242188 189.730469 165.859375 C 189.882812 165.609375 190.089844 165.414062 190.34375 165.273438 C 190.601562 165.128906 190.875 165.058594 191.167969 165.058594 Z M 146.980469 166.925781 C 147.207031 166.925781 147.421875 166.96875 147.628906 167.054688 C 147.839844 167.140625 148.023438 167.265625 148.183594 167.421875 C 148.34375 167.582031 148.464844 167.765625 148.550781 167.976562 C 148.640625 168.183594 148.683594 168.398438 148.683594 168.625 L 148.683594 168.78125 C 148.699219 171.671875 148.433594 174.539062 147.882812 177.375 C 147.828125 177.589844 147.738281 177.785156 147.613281 177.964844 C 147.484375 178.144531 147.328125 178.296875 147.140625 178.414062 C 146.953125 178.53125 146.753906 178.613281 146.535156 178.652344 C 146.320312 178.695312 146.101562 178.691406 145.886719 178.648438 C 145.671875 178.605469 145.46875 178.523438 145.285156 178.402344 C 145.101562 178.28125 144.945312 178.132812 144.820312 177.949219 C 144.695312 177.769531 144.605469 177.570312 144.558594 177.355469 C 144.507812 177.140625 144.5 176.925781 144.535156 176.707031 C 145.042969 174.089844 145.289062 171.449219 145.273438 168.78125 L 145.273438 168.644531 C 145.273438 168.417969 145.316406 168.199219 145.402344 167.992188 C 145.488281 167.78125 145.609375 167.597656 145.769531 167.4375 C 145.929688 167.277344 146.113281 167.152344 146.320312 167.066406 C 146.527344 166.980469 146.746094 166.933594 146.972656 166.933594 Z M 232.976562 177.808594 C 233.050781 177.800781 233.128906 177.800781 233.203125 177.808594 C 233.429688 177.835938 233.636719 177.90625 233.832031 178.019531 C 234.027344 178.132812 234.195312 178.28125 234.332031 178.457031 C 234.46875 178.636719 234.566406 178.835938 234.625 179.054688 C 234.683594 179.273438 234.695312 179.492188 234.667969 179.714844 C 234.347656 182.125 233.929688 184.808594 233.355469 188.148438 C 233.320312 188.371094 233.238281 188.578125 233.121094 188.769531 C 233 188.960938 232.847656 189.125 232.664062 189.253906 C 232.476562 189.386719 232.277344 189.476562 232.054688 189.527344 C 231.835938 189.574219 231.613281 189.582031 231.390625 189.542969 C 231.167969 189.503906 230.960938 189.425781 230.769531 189.304688 C 230.578125 189.1875 230.417969 189.035156 230.285156 188.847656 C 230.15625 188.664062 230.066406 188.460938 230.015625 188.242188 C 229.964844 188.019531 229.957031 187.800781 229.996094 187.578125 C 230.5625 184.273438 230.972656 181.632812 231.289062 179.265625 C 231.320312 179.0625 231.382812 178.871094 231.480469 178.691406 C 231.578125 178.511719 231.707031 178.355469 231.859375 178.222656 C 232.015625 178.089844 232.1875 177.984375 232.378906 177.914062 C 232.570312 177.84375 232.769531 177.808594 232.976562 177.808594 Z M 191.492188 181.207031 C 191.789062 181.207031 192.066406 181.277344 192.324219 181.421875 C 192.582031 181.566406 192.789062 181.761719 192.945312 182.011719 C 194.359375 184.207031 196.179688 185.988281 198.40625 187.359375 C 198.585938 187.484375 198.738281 187.640625 198.855469 187.824219 C 198.976562 188.011719 199.058594 188.210938 199.101562 188.425781 C 199.144531 188.644531 199.144531 188.859375 199.101562 189.074219 C 199.0625 189.292969 198.980469 189.492188 198.863281 189.679688 C 198.746094 189.863281 198.59375 190.019531 198.414062 190.148438 C 198.238281 190.273438 198.039062 190.363281 197.824219 190.417969 C 197.613281 190.46875 197.394531 190.476562 197.179688 190.445312 C 196.960938 190.414062 196.757812 190.34375 196.566406 190.230469 C 193.90625 188.585938 191.734375 186.445312 190.046875 183.8125 C 189.882812 183.546875 189.796875 183.261719 189.789062 182.953125 C 189.78125 182.644531 189.851562 182.351562 190.003906 182.082031 C 190.152344 181.8125 190.363281 181.597656 190.628906 181.441406 C 190.894531 181.285156 191.183594 181.207031 191.492188 181.207031 Z M 143.597656 183.34375 C 143.847656 183.34375 144.085938 183.398438 144.3125 183.503906 C 144.519531 183.601562 144.699219 183.730469 144.851562 183.898438 C 145.003906 184.066406 145.117188 184.253906 145.195312 184.46875 C 145.273438 184.679688 145.308594 184.898438 145.296875 185.125 C 145.289062 185.351562 145.234375 185.566406 145.140625 185.769531 C 143.871094 188.402344 142.40625 190.914062 140.738281 193.308594 C 140.605469 193.480469 140.445312 193.621094 140.261719 193.734375 C 140.074219 193.84375 139.871094 193.917969 139.660156 193.953125 C 139.445312 193.988281 139.230469 193.980469 139.019531 193.933594 C 138.808594 193.886719 138.609375 193.800781 138.429688 193.679688 C 138.25 193.558594 138.101562 193.410156 137.976562 193.230469 C 137.855469 193.050781 137.769531 192.855469 137.722656 192.640625 C 137.675781 192.429688 137.667969 192.21875 137.699219 192.003906 C 137.734375 191.789062 137.804688 191.585938 137.917969 191.398438 C 139.484375 189.15625 140.859375 186.800781 142.050781 184.339844 C 142.1875 184.039062 142.394531 183.800781 142.667969 183.621094 C 142.945312 183.441406 143.246094 183.347656 143.578125 183.34375 Z M 261.304688 183.703125 C 261.886719 183.703125 262.480469 183.703125 263.085938 183.722656 C 263.3125 183.726562 263.527344 183.769531 263.738281 183.859375 C 263.945312 183.945312 264.128906 184.070312 264.285156 184.234375 C 264.445312 184.394531 264.566406 184.578125 264.652344 184.789062 C 264.734375 185 264.777344 185.214844 264.773438 185.441406 C 264.773438 185.667969 264.726562 185.882812 264.640625 186.09375 C 264.550781 186.300781 264.425781 186.484375 264.265625 186.640625 C 264.105469 186.800781 263.917969 186.921875 263.707031 187.007812 C 263.5 187.089844 263.28125 187.132812 263.054688 187.128906 L 263.027344 187.128906 C 262.441406 187.128906 261.878906 187.128906 261.304688 187.128906 C 259.011719 187.128906 256.816406 187.21875 254.734375 187.382812 C 254.507812 187.398438 254.289062 187.375 254.074219 187.304688 C 253.859375 187.234375 253.664062 187.125 253.492188 186.980469 C 253.320312 186.832031 253.183594 186.660156 253.082031 186.457031 C 252.976562 186.257812 252.917969 186.042969 252.898438 185.820312 C 252.882812 185.59375 252.90625 185.375 252.976562 185.160156 C 253.046875 184.945312 253.152344 184.75 253.300781 184.578125 C 253.445312 184.40625 253.617188 184.269531 253.820312 184.164062 C 254.019531 184.0625 254.234375 184 254.457031 183.984375 C 256.613281 183.796875 258.914062 183.703125 261.285156 183.703125 Z M 271.5 184.261719 C 271.574219 184.257812 271.648438 184.257812 271.722656 184.261719 C 274.632812 184.632812 277.488281 185.269531 280.28125 186.171875 C 280.496094 186.242188 280.6875 186.347656 280.863281 186.496094 C 281.035156 186.644531 281.171875 186.816406 281.273438 187.019531 C 281.375 187.21875 281.4375 187.433594 281.453125 187.660156 C 281.472656 187.882812 281.445312 188.105469 281.375 188.320312 C 281.304688 188.535156 281.195312 188.726562 281.050781 188.898438 C 280.902344 189.070312 280.730469 189.210938 280.527344 189.3125 C 280.328125 189.414062 280.113281 189.472656 279.886719 189.492188 C 279.660156 189.511719 279.441406 189.484375 279.226562 189.414062 C 276.632812 188.582031 273.984375 187.996094 271.28125 187.65625 C 271.066406 187.632812 270.863281 187.566406 270.667969 187.464844 C 270.476562 187.359375 270.3125 187.222656 270.171875 187.058594 C 270.03125 186.890625 269.925781 186.703125 269.859375 186.492188 C 269.792969 186.285156 269.765625 186.074219 269.777344 185.855469 C 269.792969 185.636719 269.847656 185.429688 269.941406 185.234375 C 270.035156 185.035156 270.160156 184.863281 270.320312 184.714844 C 270.480469 184.566406 270.664062 184.453125 270.867188 184.375 C 271.070312 184.296875 271.28125 184.257812 271.5 184.261719 Z M 246.222656 185.164062 C 246.4375 185.160156 246.640625 185.199219 246.839844 185.273438 C 247.039062 185.347656 247.214844 185.453125 247.375 185.59375 C 247.53125 185.734375 247.660156 185.902344 247.753906 186.089844 C 247.851562 186.277344 247.910156 186.476562 247.933594 186.6875 C 247.957031 186.898438 247.9375 187.105469 247.882812 187.308594 C 247.828125 187.515625 247.738281 187.703125 247.613281 187.875 C 247.488281 188.042969 247.335938 188.1875 247.15625 188.300781 C 246.980469 188.414062 246.785156 188.492188 246.578125 188.535156 C 243.886719 189.113281 241.246094 189.867188 238.652344 190.789062 C 238.4375 190.863281 238.21875 190.894531 237.992188 190.882812 C 237.765625 190.867188 237.550781 190.8125 237.347656 190.714844 C 237.144531 190.617188 236.964844 190.484375 236.816406 190.316406 C 236.664062 190.144531 236.550781 189.953125 236.476562 189.742188 C 236.402344 189.527344 236.371094 189.308594 236.386719 189.082031 C 236.398438 188.855469 236.453125 188.640625 236.550781 188.4375 C 236.652344 188.234375 236.785156 188.058594 236.953125 187.90625 C 237.121094 187.753906 237.3125 187.644531 237.527344 187.570312 C 240.257812 186.601562 243.039062 185.8125 245.867188 185.203125 C 245.980469 185.179688 246.09375 185.164062 246.207031 185.164062 Z M 287.4375 189.59375 C 287.757812 189.59375 288.050781 189.675781 288.324219 189.839844 C 290.863281 191.394531 293.164062 193.238281 295.230469 195.378906 C 295.386719 195.542969 295.507812 195.726562 295.589844 195.9375 C 295.671875 196.148438 295.710938 196.367188 295.707031 196.59375 C 295.703125 196.816406 295.65625 197.035156 295.566406 197.242188 C 295.476562 197.449219 295.351562 197.628906 295.1875 197.789062 C 295.027344 197.945312 294.839844 198.066406 294.632812 198.148438 C 294.421875 198.230469 294.203125 198.269531 293.976562 198.265625 C 293.753906 198.265625 293.535156 198.21875 293.328125 198.128906 C 293.121094 198.039062 292.9375 197.914062 292.78125 197.75 C 290.90625 195.820312 288.820312 194.152344 286.523438 192.75 C 286.195312 192.554688 285.960938 192.277344 285.820312 191.921875 C 285.683594 191.566406 285.664062 191.203125 285.769531 190.835938 C 285.871094 190.46875 286.074219 190.167969 286.378906 189.9375 C 286.6875 189.707031 287.03125 189.59375 287.410156 189.59375 Z M 230.148438 190.394531 C 230.351562 190.394531 230.546875 190.429688 230.734375 190.5 C 230.925781 190.566406 231.097656 190.667969 231.25 190.796875 C 231.40625 190.929688 231.53125 191.082031 231.632812 191.257812 C 231.730469 191.433594 231.796875 191.621094 231.832031 191.816406 C 231.863281 192.015625 231.863281 192.214844 231.824219 192.414062 C 231.789062 192.613281 231.71875 192.796875 231.613281 192.972656 C 231.511719 193.144531 231.382812 193.296875 231.222656 193.421875 C 231.066406 193.550781 230.894531 193.644531 230.703125 193.710938 C 227.917969 194.710938 225.058594 195.386719 222.121094 195.738281 C 221.894531 195.765625 221.675781 195.746094 221.457031 195.683594 C 221.238281 195.621094 221.042969 195.519531 220.867188 195.378906 C 220.6875 195.238281 220.546875 195.066406 220.4375 194.871094 C 220.328125 194.671875 220.257812 194.460938 220.234375 194.234375 C 220.207031 194.011719 220.226562 193.789062 220.289062 193.574219 C 220.351562 193.355469 220.453125 193.15625 220.59375 192.980469 C 220.738281 192.804688 220.90625 192.660156 221.105469 192.550781 C 221.300781 192.441406 221.515625 192.375 221.738281 192.351562 C 224.421875 192.023438 227.035156 191.402344 229.578125 190.488281 C 229.757812 190.425781 229.9375 190.394531 230.125 190.394531 Z M 205.171875 190.550781 C 205.339844 190.554688 205.503906 190.578125 205.667969 190.628906 C 208.28125 191.40625 210.945312 191.941406 213.65625 192.234375 C 213.882812 192.257812 214.09375 192.324219 214.292969 192.433594 C 214.488281 192.542969 214.660156 192.6875 214.800781 192.863281 C 214.941406 193.039062 215.042969 193.238281 215.105469 193.453125 C 215.167969 193.671875 215.1875 193.894531 215.164062 194.117188 C 215.136719 194.34375 215.070312 194.554688 214.960938 194.75 C 214.851562 194.949219 214.707031 195.121094 214.53125 195.261719 C 214.351562 195.402344 214.15625 195.503906 213.9375 195.566406 C 213.722656 195.628906 213.5 195.644531 213.273438 195.621094 C 210.355469 195.304688 207.488281 194.726562 204.675781 193.890625 C 204.480469 193.828125 204.300781 193.738281 204.140625 193.613281 C 203.976562 193.488281 203.84375 193.339844 203.734375 193.167969 C 203.625 192.996094 203.550781 192.808594 203.507812 192.609375 C 203.464844 192.410156 203.460938 192.210938 203.492188 192.007812 C 203.519531 191.804688 203.585938 191.617188 203.683594 191.4375 C 203.78125 191.257812 203.90625 191.101562 204.0625 190.96875 C 204.214844 190.835938 204.386719 190.734375 204.578125 190.660156 C 204.769531 190.589844 204.964844 190.554688 205.171875 190.550781 Z M 230.03125 194.496094 C 230.160156 194.496094 230.285156 194.511719 230.414062 194.542969 C 230.632812 194.59375 230.835938 194.683594 231.019531 194.8125 C 231.207031 194.945312 231.359375 195.105469 231.480469 195.296875 C 231.601562 195.488281 231.679688 195.695312 231.71875 195.917969 C 231.753906 196.140625 231.75 196.363281 231.699219 196.582031 C 231.0625 199.382812 230.328125 202.175781 229.523438 204.886719 C 229.457031 205.101562 229.355469 205.300781 229.210938 205.472656 C 229.070312 205.648438 228.898438 205.792969 228.699219 205.898438 C 228.503906 206.007812 228.289062 206.074219 228.066406 206.097656 C 227.839844 206.121094 227.621094 206.101562 227.402344 206.035156 C 227.1875 205.972656 226.988281 205.867188 226.8125 205.726562 C 226.636719 205.582031 226.496094 205.414062 226.390625 205.214844 C 226.28125 205.015625 226.214844 204.804688 226.191406 204.578125 C 226.167969 204.351562 226.1875 204.132812 226.253906 203.914062 C 227.039062 201.273438 227.753906 198.570312 228.371094 195.828125 C 228.460938 195.4375 228.65625 195.117188 228.96875 194.867188 C 229.277344 194.617188 229.632812 194.492188 230.03125 194.488281 Z M 134.492188 197.609375 C 134.804688 197.609375 135.09375 197.691406 135.363281 197.851562 C 135.632812 198.015625 135.84375 198.234375 135.992188 198.511719 C 136.136719 198.785156 136.207031 199.082031 136.191406 199.394531 C 136.175781 199.707031 136.085938 199.996094 135.910156 200.257812 C 134.378906 202.515625 133.035156 204.882812 131.878906 207.355469 C 131.785156 207.5625 131.65625 207.742188 131.488281 207.898438 C 131.324219 208.050781 131.136719 208.167969 130.925781 208.246094 C 130.714844 208.324219 130.492188 208.363281 130.269531 208.355469 C 130.042969 208.347656 129.828125 208.296875 129.621094 208.203125 C 129.414062 208.109375 129.234375 207.976562 129.082031 207.8125 C 128.925781 207.648438 128.808594 207.460938 128.730469 207.246094 C 128.652344 207.035156 128.617188 206.816406 128.625 206.589844 C 128.632812 206.363281 128.683594 206.148438 128.777344 205.945312 C 130.003906 203.300781 131.433594 200.769531 133.070312 198.355469 C 133.410156 197.851562 133.882812 197.601562 134.492188 197.601562 Z M 299.101562 201.59375 C 299.402344 201.59375 299.6875 201.667969 299.949219 201.816406 C 300.210938 201.96875 300.417969 202.171875 300.574219 202.429688 C 302.0625 204.964844 303.296875 207.617188 304.28125 210.390625 C 304.355469 210.601562 304.386719 210.820312 304.375 211.042969 C 304.359375 211.269531 304.304688 211.480469 304.210938 211.683594 C 304.113281 211.886719 303.980469 212.0625 303.8125 212.214844 C 303.644531 212.363281 303.457031 212.476562 303.246094 212.554688 C 303.035156 212.628906 302.816406 212.660156 302.589844 212.652344 C 302.367188 212.640625 302.152344 212.585938 301.949219 212.492188 C 301.746094 212.394531 301.570312 212.265625 301.417969 212.101562 C 301.265625 211.933594 301.152344 211.746094 301.074219 211.535156 C 300.160156 208.96875 299.011719 206.511719 297.636719 204.160156 C 297.519531 203.964844 297.445312 203.757812 297.414062 203.535156 C 297.382812 203.308594 297.394531 203.089844 297.449219 202.871094 C 297.503906 202.652344 297.601562 202.449219 297.738281 202.269531 C 297.871094 202.089844 298.039062 201.941406 298.230469 201.828125 C 298.503906 201.664062 298.800781 201.582031 299.117188 201.585938 Z M 225.199219 210.726562 C 225.402344 210.726562 225.601562 210.761719 225.792969 210.832031 C 226.007812 210.910156 226.195312 211.027344 226.359375 211.183594 C 226.527344 211.335938 226.65625 211.515625 226.75 211.722656 C 226.84375 211.925781 226.894531 212.144531 226.902344 212.367188 C 226.910156 212.59375 226.875 212.8125 226.796875 213.023438 C 225.796875 215.699219 224.695312 218.371094 223.519531 220.964844 C 223.425781 221.171875 223.296875 221.351562 223.132812 221.503906 C 222.964844 221.660156 222.777344 221.777344 222.566406 221.855469 C 222.355469 221.9375 222.136719 221.972656 221.910156 221.964844 C 221.683594 221.957031 221.46875 221.90625 221.261719 221.816406 C 221.058594 221.722656 220.878906 221.59375 220.722656 221.429688 C 220.566406 221.261719 220.449219 221.074219 220.371094 220.863281 C 220.292969 220.652344 220.253906 220.433594 220.261719 220.207031 C 220.269531 219.980469 220.320312 219.765625 220.414062 219.558594 C 221.558594 217.039062 222.628906 214.441406 223.597656 211.832031 C 223.722656 211.5 223.933594 211.230469 224.226562 211.03125 C 224.519531 210.828125 224.84375 210.726562 225.199219 210.726562 Z M 127.625 212.960938 C 127.753906 212.960938 127.878906 212.976562 128.003906 213.003906 C 128.226562 213.054688 128.429688 213.144531 128.613281 213.277344 C 128.796875 213.40625 128.949219 213.566406 129.070312 213.757812 C 129.191406 213.949219 129.269531 214.15625 129.308594 214.378906 C 129.34375 214.601562 129.339844 214.824219 129.289062 215.046875 C 128.75 217.441406 128.402344 219.867188 128.238281 222.320312 L 128.1875 223.136719 C 128.167969 223.359375 128.109375 223.566406 128.007812 223.765625 C 127.90625 223.960938 127.769531 224.132812 127.601562 224.273438 C 127.433594 224.417969 127.246094 224.527344 127.035156 224.597656 C 126.828125 224.667969 126.613281 224.699219 126.390625 224.6875 C 126.171875 224.671875 125.960938 224.621094 125.761719 224.523438 C 125.558594 224.429688 125.386719 224.300781 125.234375 224.140625 C 125.085938 223.976562 124.96875 223.792969 124.890625 223.585938 C 124.8125 223.378906 124.777344 223.164062 124.78125 222.945312 L 124.839844 222.089844 C 125.011719 219.457031 125.386719 216.855469 125.964844 214.285156 C 126.054688 213.898438 126.253906 213.582031 126.5625 213.332031 C 126.875 213.085938 127.226562 212.960938 127.625 212.960938 Z M 304.933594 217.414062 C 305.339844 217.414062 305.699219 217.542969 306.015625 217.800781 C 306.328125 218.058594 306.527344 218.386719 306.605469 218.785156 C 307.175781 221.621094 307.582031 224.476562 307.832031 227.359375 C 307.84375 227.578125 307.8125 227.792969 307.738281 228 C 307.667969 228.210938 307.558594 228.398438 307.414062 228.5625 C 307.269531 228.730469 307.097656 228.863281 306.898438 228.960938 C 306.703125 229.0625 306.496094 229.121094 306.273438 229.140625 C 306.054688 229.160156 305.839844 229.136719 305.628906 229.074219 C 305.417969 229.007812 305.226562 228.90625 305.054688 228.765625 C 304.882812 228.628906 304.742188 228.464844 304.636719 228.269531 C 304.527344 228.078125 304.460938 227.871094 304.433594 227.652344 C 304.203125 224.898438 303.824219 222.167969 303.289062 219.457031 C 303.238281 219.207031 303.246094 218.957031 303.308594 218.707031 C 303.367188 218.460938 303.480469 218.238281 303.644531 218.039062 C 303.804688 217.84375 304 217.6875 304.230469 217.578125 C 304.460938 217.46875 304.707031 217.414062 304.960938 217.414062 Z M 218.203125 226.144531 C 218.488281 226.144531 218.757812 226.210938 219.011719 226.351562 C 219.207031 226.457031 219.375 226.597656 219.519531 226.773438 C 219.660156 226.945312 219.761719 227.140625 219.828125 227.355469 C 219.890625 227.570312 219.914062 227.789062 219.890625 228.011719 C 219.871094 228.234375 219.808594 228.445312 219.703125 228.640625 C 218.351562 231.144531 216.886719 233.632812 215.359375 236.050781 C 215.238281 236.242188 215.085938 236.402344 214.902344 236.53125 C 214.714844 236.660156 214.515625 236.75 214.292969 236.800781 C 214.074219 236.847656 213.851562 236.855469 213.628906 236.816406 C 213.40625 236.777344 213.199219 236.695312 213.007812 236.574219 C 212.820312 236.457031 212.660156 236.300781 212.527344 236.117188 C 212.398438 235.933594 212.308594 235.730469 212.257812 235.511719 C 212.210938 235.289062 212.203125 235.070312 212.242188 234.847656 C 212.28125 234.625 212.359375 234.417969 212.480469 234.226562 C 213.964844 231.875 215.386719 229.453125 216.699219 227.019531 C 216.851562 226.746094 217.0625 226.535156 217.332031 226.375 C 217.601562 226.21875 217.890625 226.140625 218.203125 226.144531 Z M 126.496094 229.800781 C 126.714844 229.800781 126.921875 229.839844 127.125 229.917969 C 127.324219 229.996094 127.503906 230.113281 127.660156 230.257812 C 127.820312 230.40625 127.945312 230.578125 128.035156 230.773438 C 128.128906 230.96875 128.183594 231.175781 128.195312 231.390625 C 128.371094 234.121094 128.765625 236.816406 129.382812 239.476562 C 129.425781 239.691406 129.425781 239.910156 129.382812 240.125 C 129.339844 240.339844 129.257812 240.539062 129.140625 240.722656 C 129.019531 240.910156 128.871094 241.0625 128.691406 241.191406 C 128.511719 241.316406 128.316406 241.40625 128.101562 241.457031 C 127.886719 241.507812 127.671875 241.515625 127.453125 241.484375 C 127.238281 241.453125 127.035156 241.378906 126.84375 241.269531 C 126.65625 241.15625 126.492188 241.015625 126.359375 240.839844 C 126.222656 240.667969 126.125 240.476562 126.066406 240.265625 C 125.40625 237.417969 124.980469 234.535156 124.796875 231.617188 C 124.78125 231.390625 124.8125 231.171875 124.882812 230.957031 C 124.957031 230.742188 125.066406 230.550781 125.214844 230.382812 C 125.363281 230.210938 125.539062 230.078125 125.742188 229.976562 C 125.941406 229.875 126.15625 229.816406 126.382812 229.804688 C 126.417969 229.800781 126.457031 229.800781 126.496094 229.800781 Z M 209.148438 240.449219 C 209.472656 240.449219 209.769531 240.535156 210.042969 240.703125 C 210.316406 240.871094 210.527344 241.097656 210.671875 241.382812 C 210.816406 241.671875 210.875 241.972656 210.851562 242.292969 C 210.824219 242.613281 210.714844 242.902344 210.523438 243.164062 C 209.761719 244.207031 208.972656 245.253906 208.167969 246.285156 C 207.1875 247.550781 206.160156 248.769531 205.113281 249.910156 C 204.964844 250.089844 204.785156 250.230469 204.578125 250.335938 C 204.371094 250.441406 204.152344 250.503906 203.921875 250.519531 C 203.691406 250.535156 203.464844 250.503906 203.246094 250.425781 C 203.027344 250.351562 202.832031 250.234375 202.660156 250.078125 C 202.488281 249.921875 202.355469 249.738281 202.257812 249.527344 C 202.160156 249.316406 202.109375 249.09375 202.105469 248.863281 C 202.097656 248.628906 202.136719 248.40625 202.222656 248.191406 C 202.308594 247.976562 202.433594 247.785156 202.597656 247.621094 C 203.582031 246.542969 204.546875 245.394531 205.476562 244.203125 C 206.257812 243.195312 207.03125 242.171875 207.769531 241.144531 C 208.109375 240.679688 208.570312 240.449219 209.148438 240.449219 Z M 130.523438 246.136719 C 130.847656 246.136719 131.148438 246.226562 131.425781 246.398438 C 131.699219 246.570312 131.910156 246.804688 132.050781 247.097656 C 133.214844 249.519531 134.683594 251.738281 136.453125 253.761719 C 136.601562 253.929688 136.714844 254.125 136.785156 254.335938 C 136.859375 254.550781 136.886719 254.769531 136.875 254.996094 C 136.859375 255.222656 136.800781 255.4375 136.703125 255.640625 C 136.601562 255.84375 136.46875 256.019531 136.296875 256.167969 C 136.128906 256.316406 135.933594 256.425781 135.722656 256.5 C 135.507812 256.574219 135.289062 256.601562 135.0625 256.585938 C 134.835938 256.574219 134.621094 256.515625 134.417969 256.414062 C 134.214844 256.316406 134.039062 256.179688 133.890625 256.011719 C 131.921875 253.757812 130.285156 251.285156 128.992188 248.585938 C 128.890625 248.382812 128.832031 248.167969 128.816406 247.941406 C 128.800781 247.710938 128.832031 247.492188 128.90625 247.277344 C 128.980469 247.0625 129.09375 246.867188 129.242188 246.699219 C 129.394531 246.527344 129.574219 246.394531 129.777344 246.292969 C 130.015625 246.183594 130.261719 246.132812 130.523438 246.136719 Z M 197.671875 252.832031 C 198.039062 252.828125 198.375 252.933594 198.675781 253.144531 C 198.976562 253.355469 199.183594 253.632812 199.304688 253.980469 C 199.425781 254.324219 199.433594 254.675781 199.328125 255.027344 C 199.222656 255.378906 199.023438 255.664062 198.730469 255.890625 C 196.433594 257.710938 193.992188 259.3125 191.40625 260.695312 C 191.207031 260.804688 190.992188 260.867188 190.765625 260.886719 C 190.542969 260.90625 190.320312 260.882812 190.105469 260.816406 C 189.886719 260.75 189.691406 260.644531 189.519531 260.5 C 189.34375 260.355469 189.203125 260.183594 189.097656 259.980469 C 188.996094 259.78125 188.929688 259.570312 188.910156 259.34375 C 188.890625 259.117188 188.914062 258.898438 188.980469 258.679688 C 189.046875 258.464844 189.152344 258.269531 189.300781 258.09375 C 189.445312 257.921875 189.617188 257.78125 189.816406 257.675781 C 192.214844 256.378906 194.484375 254.882812 196.621094 253.1875 C 196.929688 252.945312 197.28125 252.828125 197.671875 252.832031 Z M 141.609375 258.636719 C 141.933594 258.636719 142.234375 258.722656 142.511719 258.894531 C 144.792969 260.308594 147.222656 261.382812 149.800781 262.121094 C 150.019531 262.183594 150.21875 262.285156 150.394531 262.425781 C 150.574219 262.570312 150.714844 262.738281 150.828125 262.9375 C 150.9375 263.136719 151.003906 263.347656 151.03125 263.574219 C 151.054688 263.796875 151.035156 264.019531 150.972656 264.238281 C 150.910156 264.457031 150.808594 264.652344 150.667969 264.832031 C 150.527344 265.007812 150.359375 265.152344 150.160156 265.261719 C 149.960938 265.371094 149.75 265.441406 149.523438 265.464844 C 149.296875 265.492188 149.078125 265.472656 148.859375 265.410156 C 145.976562 264.582031 143.257812 263.378906 140.707031 261.800781 C 140.386719 261.597656 140.15625 261.320312 140.019531 260.964844 C 139.882812 260.609375 139.867188 260.25 139.972656 259.882812 C 140.078125 259.519531 140.28125 259.222656 140.585938 258.992188 C 140.886719 258.761719 141.230469 258.648438 141.609375 258.644531 Z M 182.820312 260.785156 C 183.023438 260.785156 183.21875 260.824219 183.40625 260.894531 C 183.597656 260.964844 183.765625 261.066406 183.921875 261.199219 C 184.074219 261.332031 184.199219 261.484375 184.296875 261.660156 C 184.394531 261.835938 184.460938 262.027344 184.492188 262.226562 C 184.523438 262.425781 184.519531 262.625 184.480469 262.820312 C 184.441406 263.019531 184.371094 263.207031 184.265625 263.378906 C 184.160156 263.550781 184.03125 263.699219 183.871094 263.828125 C 183.714844 263.953125 183.539062 264.046875 183.347656 264.113281 C 180.566406 265.007812 177.734375 265.683594 174.847656 266.132812 C 174.625 266.167969 174.40625 266.15625 174.183594 266.105469 C 173.964844 266.050781 173.765625 265.957031 173.582031 265.824219 C 173.398438 265.691406 173.25 265.527344 173.128906 265.335938 C 173.011719 265.144531 172.9375 264.933594 172.902344 264.710938 C 172.867188 264.488281 172.875 264.265625 172.929688 264.046875 C 172.980469 263.828125 173.074219 263.625 173.207031 263.441406 C 173.339844 263.261719 173.503906 263.109375 173.699219 262.992188 C 173.890625 262.875 174.097656 262.796875 174.320312 262.761719 C 177.03125 262.335938 179.6875 261.699219 182.292969 260.855469 C 182.464844 260.800781 182.640625 260.78125 182.820312 260.785156 Z M 157.675781 263.367188 C 157.703125 263.367188 157.730469 263.367188 157.753906 263.367188 C 159.589844 263.445312 161.574219 263.523438 163.730469 263.523438 C 164.539062 263.523438 165.335938 263.523438 166.101562 263.492188 C 166.328125 263.488281 166.546875 263.523438 166.757812 263.605469 C 166.96875 263.683594 167.15625 263.804688 167.320312 263.957031 C 167.484375 264.113281 167.613281 264.292969 167.707031 264.5 C 167.796875 264.707031 167.847656 264.921875 167.855469 265.148438 C 167.859375 265.375 167.824219 265.59375 167.742188 265.804688 C 167.664062 266.015625 167.542969 266.203125 167.390625 266.367188 C 167.234375 266.53125 167.054688 266.660156 166.847656 266.75 C 166.640625 266.84375 166.425781 266.894531 166.199219 266.898438 C 165.398438 266.9375 164.566406 266.9375 163.730469 266.9375 C 161.519531 266.9375 159.480469 266.863281 157.621094 266.777344 C 157.402344 266.761719 157.191406 266.710938 156.992188 266.613281 C 156.792969 266.519531 156.621094 266.390625 156.472656 266.230469 C 156.324219 266.066406 156.210938 265.882812 156.132812 265.675781 C 156.054688 265.46875 156.015625 265.257812 156.023438 265.039062 C 156.027344 264.816406 156.070312 264.605469 156.160156 264.402344 C 156.246094 264.199219 156.367188 264.023438 156.523438 263.867188 C 156.675781 263.710938 156.855469 263.589844 157.058594 263.503906 C 157.261719 263.417969 157.472656 263.371094 157.691406 263.367188 Z M 157.675781 263.367188 " fill-opacity="1" fill-rule="nonzero"/></g><path fill="#4682b4" d="M 306.453125 234.578125 C 306.679688 234.578125 306.898438 234.621094 307.109375 234.710938 C 307.316406 234.796875 307.5 234.921875 307.660156 235.082031 C 307.820312 235.242188 307.941406 235.429688 308.027344 235.636719 C 308.109375 235.847656 308.152344 236.066406 308.152344 236.292969 C 308.152344 237.703125 308.109375 239.15625 308.046875 240.617188 C 308.039062 240.839844 307.984375 241.054688 307.890625 241.261719 C 307.792969 241.464844 307.664062 241.644531 307.496094 241.796875 C 307.328125 241.949219 307.140625 242.0625 306.929688 242.140625 C 306.714844 242.21875 306.496094 242.253906 306.269531 242.242188 C 306.046875 242.234375 305.832031 242.179688 305.625 242.085938 C 305.421875 241.992188 305.242188 241.859375 305.089844 241.695312 C 304.9375 241.527344 304.820312 241.339844 304.742188 241.125 C 304.664062 240.914062 304.632812 240.695312 304.640625 240.46875 C 304.703125 239.058594 304.734375 237.644531 304.738281 236.269531 C 304.742188 236.042969 304.785156 235.828125 304.875 235.617188 C 304.960938 235.410156 305.085938 235.226562 305.246094 235.070312 C 305.410156 234.910156 305.59375 234.789062 305.800781 234.703125 C 306.011719 234.617188 306.230469 234.574219 306.453125 234.578125 Z M 306.453125 234.578125 " fill-opacity="1" fill-rule="nonzero"/></svg>