<svg xmlns="http://www.w3.org/2000/svg" xmlns:xlink="http://www.w3.org/1999/xlink" zoomAndPan="magnify" preserveAspectRatio="xMidYMid meet" version="1.0" viewBox="88.67 108.11 209.25 176.25"><defs><clipPath id="aaab99f5ce"><path d="M 128 261 L 155 261 L 155 284.359375 L 128 284.359375 Z M 128 261 " clip-rule="nonzero"/></clipPath><clipPath id="4c6fc55ec9"><path d="M 292 108.109375 L 297 108.109375 L 297 117 L 292 117 Z M 292 108.109375 " clip-rule="nonzero"/></clipPath><clipPath id="43cfe87115"><path d="M 88.667969 121 L 297.917969 121 L 297.917969 273 L 88.667969 273 Z M 88.667969 121 " clip-rule="nonzero"/></clipPath></defs><g clip-path="url(#aaab99f5ce)"><path fill="#4682b4" d="M 130.910156 284.34375 L 149.476562 283.816406 C 150.03125 283.800781 150.566406 283.703125 151.09375 283.523438 C 151.617188 283.347656 152.101562 283.097656 152.550781 282.773438 C 153 282.449219 153.390625 282.0625 153.722656 281.621094 C 154.058594 281.179688 154.320312 280.699219 154.507812 280.179688 C 154.695312 279.660156 154.804688 279.125 154.832031 278.570312 C 154.859375 278.019531 154.804688 277.476562 154.671875 276.9375 C 154.535156 276.402344 154.324219 275.898438 154.035156 275.425781 C 153.746094 274.953125 153.398438 274.535156 152.984375 274.167969 L 139.105469 261.839844 C 138.953125 261.703125 138.78125 261.585938 138.597656 261.488281 C 138.414062 261.394531 138.21875 261.320312 138.015625 261.269531 C 137.816406 261.222656 137.609375 261.199219 137.402344 261.199219 C 137.195312 261.199219 136.988281 261.226562 136.785156 261.277344 C 136.585938 261.328125 136.390625 261.402344 136.207031 261.5 C 136.023438 261.597656 135.855469 261.71875 135.703125 261.855469 C 135.546875 261.996094 135.410156 262.152344 135.296875 262.324219 C 135.179688 262.496094 135.085938 262.679688 135.011719 262.875 C 134.753906 263.585938 134.800781 264.273438 135.152344 264.941406 L 137.789062 269.949219 C 137.957031 270.269531 138.09375 270.601562 138.191406 270.953125 C 138.289062 271.300781 138.351562 271.65625 138.378906 272.015625 C 138.402344 272.378906 138.390625 272.738281 138.339844 273.097656 C 138.292969 273.457031 138.207031 273.808594 138.082031 274.148438 C 137.960938 274.488281 137.804688 274.8125 137.613281 275.121094 C 137.425781 275.429688 137.203125 275.71875 136.953125 275.980469 C 136.703125 276.242188 136.429688 276.476562 136.132812 276.683594 C 135.835938 276.890625 135.519531 277.0625 135.183594 277.203125 L 129.867188 279.425781 C 129.179688 279.714844 128.707031 280.207031 128.449219 280.90625 C 128.378906 281.101562 128.332031 281.304688 128.3125 281.511719 C 128.289062 281.71875 128.292969 281.925781 128.320312 282.128906 C 128.347656 282.335938 128.398438 282.535156 128.476562 282.730469 C 128.554688 282.921875 128.652344 283.105469 128.773438 283.273438 C 128.894531 283.445312 129.035156 283.597656 129.195312 283.730469 C 129.351562 283.867188 129.523438 283.980469 129.710938 284.074219 C 129.898438 284.167969 130.09375 284.234375 130.296875 284.28125 C 130.5 284.328125 130.703125 284.347656 130.910156 284.34375 Z M 130.910156 284.34375 " fill-opacity="1" fill-rule="nonzero"/></g><g clip-path="url(#4c6fc55ec9)"><path fill="#4682b4" d="M 294.90625 116.21875 C 294.683594 116.21875 294.46875 116.175781 294.261719 116.097656 C 294.050781 116.015625 293.863281 115.902344 293.699219 115.753906 C 293.535156 115.605469 293.402344 115.429688 293.300781 115.230469 C 293.199219 115.03125 293.136719 114.824219 293.113281 114.601562 C 292.828125 111.84375 292.601562 110.199219 292.601562 110.183594 C 292.570312 109.949219 292.585938 109.714844 292.644531 109.480469 C 292.707031 109.25 292.808594 109.039062 292.953125 108.847656 C 293.097656 108.660156 293.273438 108.503906 293.476562 108.382812 C 293.683594 108.261719 293.90625 108.183594 294.144531 108.152344 C 294.378906 108.117188 294.613281 108.132812 294.84375 108.195312 C 295.078125 108.253906 295.289062 108.355469 295.476562 108.5 C 295.667969 108.644531 295.824219 108.820312 295.945312 109.027344 C 296.066406 109.234375 296.144531 109.453125 296.175781 109.691406 C 296.1875 109.773438 296.410156 111.386719 296.703125 114.21875 C 296.730469 114.457031 296.707031 114.691406 296.640625 114.921875 C 296.570312 115.152344 296.460938 115.359375 296.308594 115.542969 C 296.15625 115.730469 295.976562 115.878906 295.765625 115.992188 C 295.550781 116.105469 295.328125 116.175781 295.089844 116.199219 C 295.027344 116.207031 294.96875 116.214844 294.90625 116.21875 Z M 294.90625 116.21875 " fill-opacity="1" fill-rule="nonzero"/></g><g clip-path="url(#43cfe87115)"><path fill="#4682b4" d="M 268.566406 272.871094 C 268.347656 272.871094 268.132812 272.832031 267.925781 272.757812 C 267.71875 272.679688 267.53125 272.566406 267.367188 272.421875 C 267.199219 272.277344 267.066406 272.105469 266.960938 271.910156 C 266.859375 271.71875 266.792969 271.511719 266.765625 271.292969 C 266.738281 271.070312 266.75 270.855469 266.804688 270.640625 C 266.855469 270.425781 266.945312 270.226562 267.070312 270.046875 C 267.195312 269.863281 267.347656 269.710938 267.53125 269.585938 C 267.710938 269.460938 267.910156 269.371094 268.121094 269.316406 C 269.347656 269.039062 270.472656 268.527344 271.488281 267.785156 C 272.503906 267.042969 273.332031 266.132812 273.972656 265.050781 C 274.09375 264.84375 274.246094 264.664062 274.433594 264.519531 C 274.625 264.371094 274.832031 264.265625 275.0625 264.203125 C 275.292969 264.140625 275.527344 264.121094 275.765625 264.152344 C 276.003906 264.179688 276.226562 264.253906 276.433594 264.375 C 276.640625 264.492188 276.820312 264.644531 276.964844 264.832031 C 277.113281 265.023438 277.21875 265.230469 277.28125 265.460938 C 277.34375 265.691406 277.359375 265.925781 277.332031 266.164062 C 277.300781 266.402344 277.226562 266.625 277.109375 266.832031 C 276.230469 268.339844 275.089844 269.617188 273.683594 270.65625 C 272.28125 271.695312 270.726562 272.414062 269.027344 272.8125 C 268.875 272.851562 268.722656 272.871094 268.566406 272.871094 Z M 259.832031 272.21875 C 259.605469 272.21875 259.386719 272.179688 259.175781 272.097656 C 256.230469 270.925781 253.726562 269.132812 251.664062 266.722656 C 251.5625 266.605469 251.457031 266.488281 251.359375 266.371094 C 251.207031 266.1875 251.09375 265.984375 251.019531 265.757812 C 250.945312 265.527344 250.917969 265.296875 250.9375 265.058594 C 250.957031 264.816406 251.023438 264.59375 251.132812 264.378906 C 251.242188 264.167969 251.386719 263.984375 251.570312 263.828125 C 251.753906 263.671875 251.957031 263.558594 252.1875 263.488281 C 252.414062 263.414062 252.648438 263.386719 252.886719 263.40625 C 253.125 263.425781 253.347656 263.492188 253.5625 263.601562 C 253.773438 263.710938 253.957031 263.855469 254.113281 264.039062 L 254.375 264.347656 C 256.050781 266.320312 258.089844 267.785156 260.488281 268.746094 C 260.886719 268.910156 261.1875 269.179688 261.394531 269.554688 C 261.597656 269.933594 261.660156 270.332031 261.582031 270.753906 C 261.5 271.175781 261.296875 271.523438 260.96875 271.796875 C 260.636719 272.074219 260.261719 272.214844 259.832031 272.21875 Z M 121.0625 269.3125 C 120.761719 269.3125 120.476562 269.242188 120.210938 269.097656 C 117.511719 267.648438 114.933594 266.003906 112.484375 264.160156 C 112.265625 264.027344 112.085938 263.859375 111.9375 263.648438 C 111.792969 263.4375 111.695312 263.207031 111.648438 262.957031 C 111.601562 262.707031 111.605469 262.457031 111.664062 262.207031 C 111.722656 261.957031 111.828125 261.730469 111.984375 261.527344 C 112.140625 261.324219 112.328125 261.160156 112.550781 261.039062 C 112.777344 260.917969 113.015625 260.84375 113.269531 260.824219 C 113.527344 260.800781 113.773438 260.835938 114.015625 260.917969 C 114.253906 261.003906 114.46875 261.132812 114.65625 261.308594 C 116.964844 263.039062 119.386719 264.585938 121.929688 265.949219 C 122.292969 266.144531 122.554688 266.429688 122.722656 266.808594 C 122.886719 267.1875 122.921875 267.574219 122.820312 267.976562 C 122.71875 268.375 122.507812 268.703125 122.183594 268.957031 C 121.859375 269.210938 121.488281 269.339844 121.078125 269.34375 Z M 248.171875 259.429688 C 247.804688 259.429688 247.46875 259.324219 247.164062 259.121094 C 246.859375 258.914062 246.636719 258.640625 246.5 258.296875 C 245.34375 255.371094 244.597656 252.339844 244.265625 249.210938 C 244.246094 248.976562 244.269531 248.746094 244.339844 248.523438 C 244.410156 248.296875 244.519531 248.09375 244.667969 247.914062 C 244.820312 247.730469 244.996094 247.585938 245.203125 247.472656 C 245.410156 247.359375 245.628906 247.292969 245.863281 247.265625 C 246.097656 247.238281 246.328125 247.257812 246.550781 247.320312 C 246.777344 247.382812 246.984375 247.488281 247.171875 247.632812 C 247.355469 247.777344 247.507812 247.949219 247.625 248.152344 C 247.746094 248.355469 247.820312 248.574219 247.851562 248.804688 C 248.140625 251.613281 248.796875 254.328125 249.828125 256.953125 C 249.882812 257.089844 249.921875 257.230469 249.941406 257.375 C 249.960938 257.523438 249.960938 257.667969 249.945312 257.816406 C 249.929688 257.960938 249.898438 258.105469 249.847656 258.242188 C 249.796875 258.382812 249.726562 258.511719 249.644531 258.632812 C 249.5625 258.757812 249.46875 258.867188 249.355469 258.964844 C 249.246094 259.0625 249.128906 259.148438 248.996094 259.214844 C 248.867188 259.285156 248.730469 259.339844 248.589844 259.375 C 248.445312 259.410156 248.300781 259.429688 248.152344 259.429688 Z M 276.578125 259.109375 C 276.148438 259.109375 275.769531 258.972656 275.441406 258.703125 C 275.109375 258.433594 274.902344 258.089844 274.816406 257.671875 C 274.816406 257.59375 274.78125 257.519531 274.761719 257.441406 C 274.6875 257.121094 274.652344 256.796875 274.648438 256.46875 C 274.648438 256.183594 274.679688 255.90625 274.738281 255.628906 C 274.792969 255.355469 274.878906 255.085938 274.992188 254.828125 C 275.101562 254.570312 275.238281 254.324219 275.402344 254.09375 C 275.5625 253.859375 275.746094 253.648438 275.949219 253.453125 C 276.152344 253.257812 276.375 253.085938 276.613281 252.9375 C 276.855469 252.789062 277.105469 252.664062 277.371094 252.566406 C 277.632812 252.46875 277.90625 252.398438 278.183594 252.355469 C 278.464844 252.3125 278.742188 252.296875 279.027344 252.308594 C 280.332031 252.382812 281.636719 252.34375 282.9375 252.195312 C 283.171875 252.175781 283.398438 252.199219 283.621094 252.269531 C 283.84375 252.339844 284.046875 252.449219 284.230469 252.59375 C 284.410156 252.742188 284.558594 252.917969 284.671875 253.125 C 284.785156 253.328125 284.855469 253.546875 284.882812 253.78125 C 284.910156 254.011719 284.894531 254.242188 284.832031 254.464844 C 284.773438 254.691406 284.671875 254.898438 284.53125 255.085938 C 284.390625 255.273438 284.21875 255.425781 284.015625 255.546875 C 283.816406 255.664062 283.601562 255.742188 283.371094 255.78125 C 281.867188 255.953125 280.359375 255.996094 278.847656 255.914062 L 278.816406 255.914062 C 278.660156 255.917969 278.527344 255.976562 278.417969 256.089844 C 278.3125 256.199219 278.257812 256.335938 278.261719 256.492188 C 278.253906 256.539062 278.253906 256.589844 278.261719 256.636719 C 278.285156 256.734375 278.304688 256.832031 278.332031 256.929688 C 278.390625 257.195312 278.386719 257.460938 278.324219 257.726562 C 278.261719 257.992188 278.144531 258.234375 277.972656 258.445312 C 277.800781 258.660156 277.59375 258.824219 277.34375 258.941406 C 277.097656 259.058594 276.839844 259.117188 276.566406 259.113281 Z M 106.914062 258.640625 C 106.398438 258.636719 105.964844 258.449219 105.613281 258.074219 C 103.484375 255.859375 101.550781 253.488281 99.808594 250.960938 C 99.695312 250.761719 99.621094 250.550781 99.585938 250.324219 C 99.550781 250.101562 99.558594 249.875 99.609375 249.652344 C 99.660156 249.433594 99.75 249.226562 99.878906 249.039062 C 100.007812 248.851562 100.167969 248.691406 100.355469 248.5625 C 100.542969 248.4375 100.75 248.347656 100.972656 248.296875 C 101.195312 248.246094 101.417969 248.238281 101.644531 248.273438 C 101.867188 248.308594 102.078125 248.382812 102.277344 248.496094 C 102.472656 248.613281 102.640625 248.761719 102.78125 248.9375 C 104.414062 251.304688 106.222656 253.523438 108.214844 255.59375 C 108.464844 255.855469 108.625 256.164062 108.691406 256.519531 C 108.757812 256.875 108.71875 257.21875 108.578125 257.554688 C 108.433594 257.886719 108.210938 258.152344 107.910156 258.351562 C 107.605469 258.550781 107.273438 258.652344 106.914062 258.648438 Z M 291.242188 252.441406 C 290.871094 252.441406 290.53125 252.332031 290.226562 252.125 C 289.921875 251.914062 289.699219 251.632812 289.566406 251.289062 C 289.433594 250.941406 289.410156 250.585938 289.492188 250.226562 C 289.578125 249.863281 289.753906 249.558594 290.027344 249.308594 C 291.769531 247.714844 292.835938 245.445312 293.195312 242.558594 C 293.226562 242.320312 293.300781 242.097656 293.417969 241.890625 C 293.539062 241.683594 293.691406 241.503906 293.878906 241.359375 C 294.070312 241.210938 294.277344 241.105469 294.507812 241.042969 C 294.738281 240.980469 294.972656 240.964844 295.210938 240.992188 C 295.449219 241.023438 295.671875 241.097656 295.878906 241.214844 C 296.085938 241.332031 296.265625 241.488281 296.410156 241.675781 C 296.558594 241.863281 296.664062 242.074219 296.726562 242.304688 C 296.789062 242.535156 296.808594 242.769531 296.777344 243.007812 C 296.300781 246.761719 294.847656 249.78125 292.457031 251.964844 C 292.113281 252.285156 291.710938 252.445312 291.242188 252.441406 Z M 96.871094 244.054688 C 96.523438 244.050781 96.207031 243.957031 95.914062 243.769531 C 95.621094 243.585938 95.402344 243.335938 95.253906 243.023438 C 93.949219 240.257812 92.851562 237.410156 91.960938 234.484375 C 91.890625 234.253906 91.867188 234.023438 91.890625 233.785156 C 91.914062 233.546875 91.984375 233.320312 92.09375 233.109375 C 92.207031 232.898438 92.355469 232.71875 92.542969 232.566406 C 92.726562 232.414062 92.933594 232.304688 93.160156 232.234375 C 93.390625 232.164062 93.625 232.140625 93.863281 232.164062 C 94.101562 232.1875 94.324219 232.253906 94.535156 232.367188 C 94.746094 232.480469 94.929688 232.628906 95.078125 232.8125 C 95.230469 233 95.34375 233.203125 95.414062 233.433594 C 96.25 236.191406 97.285156 238.871094 98.515625 241.476562 C 98.582031 241.613281 98.628906 241.753906 98.65625 241.902344 C 98.6875 242.054688 98.695312 242.203125 98.6875 242.355469 C 98.679688 242.507812 98.652344 242.652344 98.605469 242.800781 C 98.558594 242.945312 98.496094 243.078125 98.414062 243.207031 C 98.335938 243.335938 98.238281 243.453125 98.128906 243.558594 C 98.019531 243.664062 97.898438 243.75 97.765625 243.824219 C 97.632812 243.898438 97.492188 243.957031 97.347656 243.996094 C 97.199219 244.03125 97.050781 244.050781 96.898438 244.054688 Z M 246.007812 241.910156 L 245.84375 241.910156 C 245.605469 241.890625 245.382812 241.824219 245.167969 241.714844 C 244.957031 241.605469 244.773438 241.457031 244.621094 241.273438 C 244.464844 241.089844 244.351562 240.882812 244.28125 240.65625 C 244.210938 240.425781 244.183594 240.195312 244.203125 239.957031 C 244.484375 236.910156 244.976562 233.902344 245.683594 230.929688 C 245.730469 230.691406 245.824219 230.472656 245.960938 230.269531 C 246.097656 230.070312 246.269531 229.902344 246.472656 229.773438 C 246.679688 229.640625 246.898438 229.554688 247.140625 229.511719 C 247.378906 229.472656 247.617188 229.476562 247.855469 229.53125 C 248.089844 229.585938 248.308594 229.683594 248.503906 229.828125 C 248.703125 229.96875 248.863281 230.144531 248.988281 230.351562 C 249.117188 230.558594 249.195312 230.78125 249.230469 231.023438 C 249.269531 231.261719 249.253906 231.5 249.195312 231.738281 C 248.527344 234.554688 248.066406 237.410156 247.808594 240.296875 C 247.785156 240.519531 247.722656 240.726562 247.621094 240.925781 C 247.519531 241.125 247.386719 241.300781 247.21875 241.449219 C 247.050781 241.597656 246.863281 241.714844 246.65625 241.792969 C 246.445312 241.875 246.230469 241.914062 246.007812 241.910156 Z M 294.054688 235.851562 C 293.671875 235.847656 293.324219 235.734375 293.015625 235.511719 C 292.703125 235.289062 292.484375 235 292.359375 234.636719 C 291.390625 232.089844 289.863281 229.9375 287.785156 228.171875 C 287.605469 228.015625 287.464844 227.828125 287.355469 227.617188 C 287.25 227.402344 287.191406 227.175781 287.171875 226.9375 C 287.15625 226.699219 287.1875 226.464844 287.265625 226.238281 C 287.339844 226.011719 287.457031 225.808594 287.613281 225.628906 C 287.773438 225.449219 287.957031 225.304688 288.171875 225.199219 C 288.386719 225.09375 288.613281 225.03125 288.851562 225.015625 C 289.089844 225 289.320312 225.03125 289.546875 225.105469 C 289.773438 225.183594 289.976562 225.300781 290.160156 225.457031 C 292.699219 227.625 294.5625 230.273438 295.742188 233.398438 C 295.828125 233.621094 295.863281 233.851562 295.855469 234.09375 C 295.847656 234.332031 295.792969 234.558594 295.695312 234.777344 C 295.59375 234.996094 295.457031 235.1875 295.28125 235.351562 C 295.109375 235.511719 294.910156 235.636719 294.683594 235.722656 C 294.480469 235.800781 294.273438 235.84375 294.054688 235.851562 Z M 91.644531 227.121094 C 91.433594 227.121094 91.226562 227.085938 91.027344 227.011719 C 90.824219 226.9375 90.644531 226.832031 90.480469 226.695312 C 90.320312 226.554688 90.1875 226.394531 90.082031 226.207031 C 89.976562 226.023438 89.90625 225.824219 89.871094 225.613281 C 89.546875 223.695312 89.296875 221.707031 89.117188 219.707031 C 89.019531 218.644531 88.953125 217.574219 88.921875 216.535156 C 88.914062 216.296875 88.953125 216.0625 89.039062 215.839844 C 89.121094 215.617188 89.246094 215.417969 89.410156 215.242188 C 89.574219 215.070312 89.765625 214.933594 89.984375 214.835938 C 90.199219 214.734375 90.429688 214.683594 90.667969 214.675781 C 90.90625 214.667969 91.136719 214.707031 91.363281 214.792969 C 91.585938 214.875 91.785156 215 91.960938 215.164062 C 92.132812 215.328125 92.269531 215.519531 92.367188 215.734375 C 92.464844 215.953125 92.519531 216.183594 92.527344 216.421875 C 92.558594 217.390625 92.621094 218.390625 92.707031 219.382812 C 92.882812 221.292969 93.113281 223.191406 93.429688 225.019531 C 93.46875 225.257812 93.460938 225.492188 93.40625 225.726562 C 93.355469 225.957031 93.257812 226.171875 93.117188 226.367188 C 92.980469 226.5625 92.808594 226.722656 92.605469 226.851562 C 92.402344 226.976562 92.179688 227.058594 91.945312 227.097656 C 91.84375 227.109375 91.746094 227.109375 91.644531 227.105469 Z M 249.9375 224.636719 C 249.722656 224.636719 249.511719 224.597656 249.308594 224.519531 C 249.082031 224.4375 248.882812 224.3125 248.707031 224.152344 C 248.535156 223.988281 248.394531 223.796875 248.296875 223.578125 C 248.199219 223.363281 248.144531 223.132812 248.136719 222.894531 C 248.128906 222.65625 248.164062 222.425781 248.25 222.199219 C 249.378906 219.253906 250.898438 216.527344 252.8125 214.019531 C 252.953125 213.828125 253.128906 213.671875 253.332031 213.550781 C 253.539062 213.425781 253.757812 213.347656 253.996094 213.3125 C 254.230469 213.277344 254.464844 213.289062 254.699219 213.347656 C 254.929688 213.40625 255.140625 213.507812 255.332031 213.648438 C 255.523438 213.792969 255.679688 213.964844 255.804688 214.171875 C 255.925781 214.375 256.003906 214.597656 256.039062 214.832031 C 256.074219 215.070312 256.0625 215.304688 256.003906 215.535156 C 255.949219 215.765625 255.847656 215.980469 255.707031 216.171875 L 255.371094 216.636719 C 258.414062 216.566406 261.386719 216.636719 264.175781 216.824219 C 264.414062 216.839844 264.640625 216.902344 264.855469 217.007812 C 265.070312 217.117188 265.253906 217.257812 265.410156 217.441406 C 265.570312 217.621094 265.683594 217.824219 265.761719 218.050781 C 265.835938 218.277344 265.867188 218.511719 265.851562 218.75 C 265.832031 218.988281 265.773438 219.214844 265.664062 219.429688 C 265.558594 219.640625 265.414062 219.828125 265.234375 219.984375 C 265.054688 220.140625 264.851562 220.257812 264.621094 220.332031 C 264.394531 220.410156 264.164062 220.4375 263.925781 220.421875 C 261.171875 220.230469 258.214844 220.171875 255.199219 220.25 C 254.867188 220.257812 254.558594 220.179688 254.269531 220.019531 C 253.980469 219.859375 253.75 219.632812 253.582031 219.347656 C 252.8125 220.664062 252.15625 222.035156 251.617188 223.460938 C 251.484375 223.808594 251.261719 224.089844 250.957031 224.300781 C 250.652344 224.511719 250.3125 224.617188 249.9375 224.621094 Z M 281.382812 224.089844 C 281.140625 224.089844 280.910156 224.046875 280.691406 223.953125 C 278.042969 222.882812 275.316406 222.074219 272.511719 221.527344 C 272.277344 221.480469 272.058594 221.390625 271.863281 221.257812 C 271.664062 221.125 271.496094 220.957031 271.367188 220.761719 C 271.234375 220.5625 271.144531 220.34375 271.097656 220.109375 C 271.050781 219.875 271.050781 219.640625 271.097656 219.40625 C 271.144531 219.171875 271.238281 218.953125 271.371094 218.757812 C 271.503906 218.558594 271.667969 218.390625 271.867188 218.257812 C 272.066406 218.128906 272.285156 218.039062 272.519531 217.992188 C 272.753906 217.945312 272.988281 217.945312 273.222656 217.992188 C 276.257812 218.582031 279.210938 219.457031 282.078125 220.621094 C 282.472656 220.785156 282.769531 221.058594 282.972656 221.4375 C 283.171875 221.816406 283.230469 222.21875 283.148438 222.640625 C 283.0625 223.058594 282.855469 223.40625 282.523438 223.679688 C 282.191406 223.953125 281.8125 224.089844 281.382812 224.089844 Z M 220.164062 222.675781 L 219.652344 222.675781 C 219.417969 222.664062 219.199219 222.613281 218.988281 222.515625 C 218.777344 222.417969 218.589844 222.289062 218.429688 222.121094 C 218.269531 221.949219 218.148438 221.757812 218.058594 221.542969 C 217.972656 221.328125 217.929688 221.105469 217.929688 220.871094 C 217.929688 220.640625 217.972656 220.417969 218.058594 220.199219 C 218.148438 219.984375 218.269531 219.792969 218.429688 219.625 C 218.589844 219.457031 218.777344 219.324219 218.988281 219.230469 C 219.199219 219.132812 219.417969 219.078125 219.652344 219.066406 L 220.15625 219.066406 C 222.695312 219.066406 225.410156 218.980469 228.433594 218.789062 C 228.671875 218.773438 228.902344 218.804688 229.128906 218.882812 C 229.355469 218.960938 229.558594 219.078125 229.738281 219.238281 C 229.917969 219.394531 230.058594 219.582031 230.164062 219.796875 C 230.269531 220.011719 230.328125 220.238281 230.34375 220.476562 C 230.359375 220.71875 230.328125 220.949219 230.25 221.175781 C 230.171875 221.402344 230.054688 221.605469 229.894531 221.785156 C 229.738281 221.964844 229.550781 222.105469 229.335938 222.210938 C 229.121094 222.316406 228.894531 222.375 228.65625 222.390625 C 225.554688 222.582031 222.753906 222.675781 220.164062 222.675781 Z M 210.78125 222.191406 C 210.714844 222.195312 210.648438 222.195312 210.578125 222.191406 C 207.542969 221.871094 204.542969 221.332031 201.585938 220.574219 C 201.359375 220.507812 201.15625 220.402344 200.972656 220.257812 C 200.789062 220.113281 200.636719 219.9375 200.523438 219.734375 C 200.40625 219.53125 200.332031 219.3125 200.304688 219.078125 C 200.273438 218.847656 200.285156 218.617188 200.34375 218.390625 C 200.402344 218.164062 200.503906 217.953125 200.644531 217.765625 C 200.78125 217.578125 200.953125 217.421875 201.152344 217.300781 C 201.351562 217.179688 201.566406 217.097656 201.800781 217.058594 C 202.03125 217.023438 202.261719 217.027344 202.488281 217.078125 C 205.28125 217.796875 208.109375 218.308594 210.976562 218.621094 C 211.207031 218.640625 211.425781 218.707031 211.632812 218.8125 C 211.839844 218.917969 212.019531 219.0625 212.171875 219.238281 C 212.324219 219.414062 212.4375 219.613281 212.511719 219.832031 C 212.589844 220.050781 212.621094 220.277344 212.605469 220.511719 C 212.59375 220.742188 212.539062 220.964844 212.441406 221.175781 C 212.339844 221.386719 212.207031 221.570312 212.039062 221.730469 C 211.867188 221.890625 211.671875 222.011719 211.457031 222.09375 C 211.238281 222.179688 211.015625 222.21875 210.78125 222.214844 Z M 237.417969 221.671875 C 237.191406 221.664062 236.96875 221.621094 236.757812 221.53125 C 236.546875 221.441406 236.359375 221.320312 236.195312 221.160156 C 236.03125 221 235.902344 220.816406 235.808594 220.605469 C 235.714844 220.398438 235.664062 220.179688 235.652344 219.949219 C 235.640625 219.722656 235.671875 219.5 235.746094 219.28125 C 235.820312 219.066406 235.929688 218.867188 236.078125 218.695312 C 236.226562 218.519531 236.402344 218.378906 236.605469 218.269531 C 236.808594 218.164062 237.023438 218.097656 237.25 218.070312 C 239.476562 217.859375 241.734375 217.625 244.035156 217.390625 L 245.382812 217.261719 L 246.109375 217.1875 C 246.339844 217.175781 246.566406 217.207031 246.785156 217.285156 C 247.007812 217.359375 247.207031 217.472656 247.382812 217.625 C 247.558594 217.777344 247.699219 217.953125 247.808594 218.160156 C 247.914062 218.367188 247.980469 218.585938 248 218.820312 C 248.023438 219.050781 248.003906 219.277344 247.9375 219.5 C 247.871094 219.726562 247.765625 219.929688 247.621094 220.109375 C 247.476562 220.292969 247.304688 220.441406 247.105469 220.558594 C 246.902344 220.675781 246.6875 220.75 246.457031 220.78125 L 245.753906 220.851562 L 244.40625 220.988281 C 242.101562 221.226562 239.832031 221.453125 237.597656 221.671875 C 237.539062 221.675781 237.480469 221.675781 237.417969 221.671875 Z M 193.660156 217.695312 C 193.40625 217.695312 193.164062 217.644531 192.933594 217.539062 C 190.121094 216.296875 187.429688 214.835938 184.851562 213.164062 C 184.652344 213.035156 184.484375 212.871094 184.347656 212.671875 C 184.210938 212.476562 184.121094 212.261719 184.070312 212.027344 C 184.019531 211.792969 184.015625 211.558594 184.0625 211.324219 C 184.105469 211.089844 184.191406 210.871094 184.320312 210.671875 C 184.453125 210.46875 184.613281 210.300781 184.8125 210.167969 C 185.007812 210.03125 185.222656 209.9375 185.457031 209.886719 C 185.691406 209.839844 185.925781 209.835938 186.160156 209.878906 C 186.394531 209.921875 186.613281 210.007812 186.816406 210.136719 C 189.222656 211.707031 191.742188 213.074219 194.371094 214.238281 C 194.757812 214.414062 195.050781 214.691406 195.242188 215.070312 C 195.4375 215.449219 195.488281 215.847656 195.402344 216.261719 C 195.3125 216.679688 195.101562 217.019531 194.773438 217.289062 C 194.441406 217.558594 194.066406 217.691406 193.640625 217.695312 Z M 260.148438 210.226562 C 259.789062 210.222656 259.457031 210.121094 259.160156 209.917969 C 258.859375 209.714844 258.640625 209.445312 258.503906 209.113281 C 258.363281 208.777344 258.332031 208.433594 258.402344 208.078125 C 258.46875 207.722656 258.632812 207.417969 258.886719 207.160156 C 261.054688 205.015625 263.332031 202.957031 265.5 201.054688 C 265.679688 200.886719 265.882812 200.757812 266.113281 200.671875 C 266.339844 200.585938 266.578125 200.546875 266.824219 200.558594 C 267.070312 200.570312 267.300781 200.628906 267.523438 200.734375 C 267.746094 200.839844 267.9375 200.984375 268.097656 201.167969 C 268.261719 201.351562 268.378906 201.5625 268.457031 201.792969 C 268.535156 202.027344 268.5625 202.265625 268.542969 202.507812 C 268.523438 202.753906 268.457031 202.984375 268.34375 203.203125 C 268.230469 203.417969 268.078125 203.605469 267.886719 203.761719 C 265.773438 205.628906 263.523438 207.644531 261.421875 209.726562 C 261.066406 210.066406 260.644531 210.234375 260.148438 210.226562 Z M 91.285156 209.417969 C 91.1875 209.417969 91.089844 209.410156 90.992188 209.394531 C 90.753906 209.355469 90.535156 209.273438 90.332031 209.148438 C 90.128906 209.019531 89.957031 208.859375 89.820312 208.664062 C 89.679688 208.472656 89.582031 208.257812 89.53125 208.023438 C 89.476562 207.792969 89.46875 207.558594 89.507812 207.320312 C 90.007812 204.25 90.847656 201.273438 92.027344 198.390625 C 92.117188 198.167969 92.246094 197.972656 92.414062 197.804688 C 92.582031 197.632812 92.777344 197.5 93 197.410156 C 93.21875 197.316406 93.449219 197.269531 93.6875 197.269531 C 93.929688 197.269531 94.160156 197.3125 94.378906 197.40625 C 94.601562 197.496094 94.796875 197.625 94.96875 197.792969 C 95.136719 197.960938 95.269531 198.15625 95.359375 198.378906 C 95.453125 198.597656 95.5 198.828125 95.5 199.070312 C 95.5 199.308594 95.453125 199.539062 95.363281 199.761719 C 94.289062 202.390625 93.523438 205.105469 93.0625 207.90625 C 93.027344 208.117188 92.957031 208.3125 92.851562 208.496094 C 92.746094 208.683594 92.609375 208.84375 92.449219 208.980469 C 92.285156 209.117188 92.105469 209.222656 91.90625 209.292969 C 91.707031 209.367188 91.5 209.402344 91.285156 209.402344 Z M 178.742188 208.117188 C 178.292969 208.117188 177.902344 207.972656 177.566406 207.679688 C 175.273438 205.6875 173.09375 203.574219 171.03125 201.34375 C 170.867188 201.167969 170.746094 200.96875 170.660156 200.746094 C 170.578125 200.519531 170.539062 200.289062 170.550781 200.050781 C 170.558594 199.8125 170.613281 199.582031 170.710938 199.367188 C 170.8125 199.148438 170.949219 198.957031 171.125 198.792969 C 171.300781 198.632812 171.5 198.507812 171.722656 198.425781 C 171.945312 198.339844 172.179688 198.304688 172.417969 198.3125 C 172.65625 198.320312 172.886719 198.375 173.101562 198.476562 C 173.320312 198.574219 173.511719 198.710938 173.671875 198.886719 C 175.644531 201.023438 177.726562 203.042969 179.921875 204.949219 C 180.207031 205.195312 180.398438 205.5 180.492188 205.867188 C 180.585938 206.234375 180.566406 206.59375 180.433594 206.945312 C 180.300781 207.300781 180.078125 207.582031 179.769531 207.796875 C 179.457031 208.011719 179.113281 208.117188 178.738281 208.117188 Z M 273.363281 198.296875 C 272.992188 198.296875 272.652344 198.191406 272.34375 197.980469 C 272.035156 197.769531 271.816406 197.488281 271.679688 197.140625 C 271.546875 196.792969 271.523438 196.4375 271.609375 196.074219 C 271.695312 195.710938 271.875 195.40625 272.152344 195.152344 C 274.679688 192.867188 276.691406 190.933594 278.46875 189.09375 C 278.628906 188.90625 278.824219 188.761719 279.042969 188.65625 C 279.265625 188.550781 279.5 188.492188 279.746094 188.484375 C 279.992188 188.472656 280.226562 188.511719 280.457031 188.597656 C 280.6875 188.683594 280.890625 188.8125 281.070312 188.980469 C 281.246094 189.152344 281.382812 189.347656 281.480469 189.574219 C 281.578125 189.800781 281.628906 190.035156 281.628906 190.28125 C 281.628906 190.527344 281.582031 190.761719 281.488281 190.988281 C 281.390625 191.214844 281.253906 191.414062 281.078125 191.585938 C 279.234375 193.511719 277.167969 195.5 274.578125 197.847656 C 274.230469 198.15625 273.824219 198.304688 273.363281 198.296875 Z M 166.585938 195.144531 C 166 195.148438 165.523438 194.917969 165.164062 194.453125 C 164.378906 193.453125 163.582031 192.40625 162.804688 191.34375 C 161.855469 190.058594 160.824219 188.84375 159.703125 187.707031 C 159.550781 187.53125 159.429688 187.335938 159.351562 187.117188 C 159.273438 186.898438 159.238281 186.671875 159.246094 186.441406 C 159.253906 186.207031 159.304688 185.984375 159.398438 185.773438 C 159.492188 185.558594 159.621094 185.371094 159.789062 185.210938 C 159.953125 185.046875 160.144531 184.921875 160.359375 184.832031 C 160.574219 184.742188 160.800781 184.699219 161.03125 184.695312 C 161.265625 184.695312 161.488281 184.734375 161.707031 184.820312 C 161.921875 184.902344 162.117188 185.027344 162.285156 185.183594 C 163.523438 186.453125 164.664062 187.800781 165.710938 189.226562 C 166.472656 190.261719 167.242188 191.277344 168.003906 192.253906 C 168.214844 192.523438 168.339844 192.832031 168.378906 193.171875 C 168.414062 193.515625 168.355469 193.84375 168.207031 194.152344 C 168.054688 194.460938 167.832031 194.707031 167.539062 194.890625 C 167.25 195.074219 166.929688 195.164062 166.585938 195.164062 Z M 98.015625 193.125 C 97.675781 193.125 97.359375 193.035156 97.070312 192.859375 C 96.78125 192.679688 96.5625 192.4375 96.40625 192.136719 C 96.253906 191.832031 96.191406 191.511719 96.21875 191.175781 C 96.25 190.835938 96.363281 190.53125 96.5625 190.257812 C 98.410156 187.738281 100.527344 185.472656 102.917969 183.464844 C 103.097656 183.308594 103.304688 183.195312 103.53125 183.121094 C 103.761719 183.046875 103.992188 183.023438 104.230469 183.042969 C 104.472656 183.0625 104.695312 183.125 104.910156 183.238281 C 105.121094 183.347656 105.304688 183.492188 105.460938 183.675781 C 105.613281 183.859375 105.726562 184.0625 105.800781 184.292969 C 105.875 184.519531 105.898438 184.753906 105.878906 184.992188 C 105.859375 185.230469 105.792969 185.457031 105.683594 185.667969 C 105.574219 185.882812 105.425781 186.066406 105.242188 186.21875 C 103.074219 188.046875 101.152344 190.105469 99.472656 192.390625 C 99.113281 192.875 98.632812 193.121094 98.027344 193.121094 Z M 285.511719 185.339844 C 285.171875 185.335938 284.859375 185.25 284.570312 185.070312 C 284.28125 184.894531 284.058594 184.652344 283.90625 184.351562 C 283.753906 184.050781 283.6875 183.730469 283.714844 183.390625 C 283.742188 183.054688 283.855469 182.746094 284.050781 182.472656 C 285.75 180.171875 287.210938 177.730469 288.4375 175.148438 C 288.539062 174.929688 288.679688 174.742188 288.855469 174.582031 C 289.03125 174.417969 289.234375 174.296875 289.457031 174.21875 C 289.683594 174.136719 289.914062 174.101562 290.152344 174.113281 C 290.394531 174.125 290.621094 174.179688 290.835938 174.28125 C 291.054688 174.382812 291.242188 174.523438 291.402344 174.699219 C 291.566406 174.878906 291.6875 175.078125 291.765625 175.304688 C 291.847656 175.527344 291.882812 175.761719 291.871094 176 C 291.859375 176.238281 291.804688 176.464844 291.703125 176.683594 C 290.378906 179.472656 288.800781 182.109375 286.96875 184.597656 C 286.609375 185.089844 286.121094 185.339844 285.511719 185.339844 Z M 154.058594 182.691406 C 153.71875 182.691406 153.402344 182.601562 153.113281 182.425781 C 150.691406 180.9375 148.132812 179.742188 145.433594 178.839844 C 145.214844 178.757812 145.015625 178.640625 144.84375 178.480469 C 144.667969 178.324219 144.53125 178.136719 144.429688 177.925781 C 144.328125 177.714844 144.269531 177.488281 144.253906 177.253906 C 144.242188 177.019531 144.269531 176.792969 144.347656 176.570312 C 144.421875 176.347656 144.535156 176.144531 144.6875 175.96875 C 144.84375 175.789062 145.023438 175.644531 145.234375 175.539062 C 145.441406 175.429688 145.664062 175.367188 145.898438 175.34375 C 146.132812 175.324219 146.363281 175.347656 146.585938 175.417969 C 149.542969 176.410156 152.347656 177.722656 155.003906 179.355469 C 155.347656 179.566406 155.59375 179.859375 155.742188 180.234375 C 155.886719 180.613281 155.90625 180.992188 155.792969 181.382812 C 155.683594 181.769531 155.46875 182.085938 155.144531 182.328125 C 154.820312 182.570312 154.457031 182.691406 154.054688 182.691406 Z M 111.472656 181.703125 C 111.054688 181.703125 110.683594 181.574219 110.355469 181.316406 C 110.027344 181.0625 109.816406 180.730469 109.71875 180.328125 C 109.617188 179.921875 109.65625 179.53125 109.828125 179.152344 C 110 178.773438 110.269531 178.488281 110.636719 178.300781 C 113.386719 176.867188 116.253906 175.730469 119.238281 174.886719 C 119.46875 174.824219 119.703125 174.804688 119.9375 174.832031 C 120.175781 174.859375 120.398438 174.933594 120.609375 175.050781 C 120.816406 175.164062 120.996094 175.316406 121.144531 175.503906 C 121.292969 175.691406 121.398438 175.902344 121.464844 176.132812 C 121.53125 176.363281 121.546875 176.59375 121.519531 176.832031 C 121.492188 177.070312 121.421875 177.292969 121.304688 177.503906 C 121.1875 177.710938 121.039062 177.890625 120.851562 178.039062 C 120.664062 178.1875 120.453125 178.292969 120.222656 178.359375 C 117.476562 179.136719 114.835938 180.179688 112.304688 181.496094 C 112.042969 181.632812 111.765625 181.703125 111.472656 181.703125 Z M 137.363281 176.996094 C 137.292969 177 137.222656 177 137.152344 176.996094 C 134.304688 176.671875 131.457031 176.621094 128.601562 176.851562 C 128.363281 176.871094 128.128906 176.84375 127.902344 176.773438 C 127.671875 176.699219 127.46875 176.585938 127.285156 176.429688 C 127.101562 176.273438 126.957031 176.089844 126.847656 175.878906 C 126.738281 175.664062 126.671875 175.4375 126.652344 175.199219 C 126.632812 174.960938 126.660156 174.726562 126.734375 174.5 C 126.808594 174.273438 126.921875 174.066406 127.078125 173.882812 C 127.234375 173.703125 127.417969 173.554688 127.632812 173.449219 C 127.84375 173.339844 128.070312 173.273438 128.308594 173.253906 C 131.394531 173.003906 134.472656 173.054688 137.546875 173.410156 C 137.78125 173.429688 138 173.496094 138.207031 173.601562 C 138.414062 173.710938 138.59375 173.851562 138.746094 174.027344 C 138.898438 174.207031 139.011719 174.402344 139.089844 174.625 C 139.164062 174.847656 139.195312 175.074219 139.179688 175.308594 C 139.167969 175.539062 139.109375 175.761719 139.011719 175.972656 C 138.910156 176.183594 138.777344 176.371094 138.605469 176.527344 C 138.433594 176.6875 138.238281 176.808594 138.019531 176.890625 C 137.800781 176.972656 137.574219 177.011719 137.339844 177.003906 Z M 293.03125 169.320312 C 292.753906 169.320312 292.488281 169.257812 292.238281 169.132812 C 291.988281 169.007812 291.777344 168.835938 291.605469 168.617188 C 291.433594 168.394531 291.320312 168.148438 291.265625 167.875 C 291.210938 167.597656 291.214844 167.328125 291.285156 167.058594 C 292.011719 164.246094 292.578125 161.402344 292.992188 158.527344 C 293.027344 158.289062 293.109375 158.070312 293.230469 157.863281 C 293.355469 157.660156 293.515625 157.488281 293.707031 157.34375 C 293.898438 157.203125 294.113281 157.105469 294.34375 157.046875 C 294.578125 156.992188 294.8125 156.980469 295.046875 157.015625 C 295.285156 157.050781 295.503906 157.132812 295.710938 157.257812 C 295.914062 157.378906 296.085938 157.539062 296.230469 157.730469 C 296.371094 157.925781 296.46875 158.136719 296.527344 158.367188 C 296.585938 158.601562 296.59375 158.835938 296.558594 159.070312 C 296.125 162.078125 295.53125 165.050781 294.777344 167.992188 C 294.671875 168.386719 294.457031 168.710938 294.132812 168.960938 C 293.808594 169.210938 293.441406 169.335938 293.03125 169.335938 Z M 295.730469 151.761719 L 295.597656 151.761719 C 295.359375 151.746094 295.132812 151.683594 294.917969 151.578125 C 294.703125 151.46875 294.519531 151.324219 294.363281 151.144531 C 294.207031 150.964844 294.089844 150.761719 294.015625 150.53125 C 293.941406 150.304688 293.910156 150.074219 293.929688 149.835938 C 294.128906 147.046875 294.257812 144.089844 294.308594 141.042969 C 294.3125 140.804688 294.363281 140.578125 294.453125 140.363281 C 294.546875 140.144531 294.679688 139.953125 294.847656 139.789062 C 295.015625 139.621094 295.210938 139.496094 295.429688 139.40625 C 295.648438 139.316406 295.875 139.269531 296.109375 139.269531 L 296.144531 139.269531 C 296.382812 139.277344 296.609375 139.324219 296.828125 139.417969 C 297.046875 139.515625 297.242188 139.648438 297.40625 139.820312 C 297.574219 139.988281 297.699219 140.1875 297.789062 140.40625 C 297.875 140.628906 297.917969 140.859375 297.917969 141.097656 C 297.863281 144.214844 297.730469 147.234375 297.511719 150.089844 C 297.496094 150.316406 297.441406 150.53125 297.34375 150.734375 C 297.246094 150.941406 297.113281 151.121094 296.949219 151.273438 C 296.785156 151.429688 296.597656 151.550781 296.386719 151.632812 C 296.175781 151.71875 295.957031 151.761719 295.730469 151.761719 Z M 296.0625 133.980469 C 295.828125 133.980469 295.601562 133.9375 295.382812 133.847656 C 295.164062 133.761719 294.972656 133.632812 294.804688 133.46875 C 294.636719 133.304688 294.503906 133.117188 294.410156 132.898438 C 294.316406 132.683594 294.265625 132.457031 294.261719 132.222656 C 294.179688 129.347656 294.042969 126.378906 293.855469 123.40625 C 293.839844 123.167969 293.871094 122.933594 293.949219 122.707031 C 294.023438 122.480469 294.140625 122.277344 294.300781 122.097656 C 294.457031 121.917969 294.644531 121.777344 294.859375 121.671875 C 295.074219 121.566406 295.300781 121.503906 295.539062 121.488281 C 295.777344 121.472656 296.011719 121.503906 296.238281 121.582031 C 296.464844 121.660156 296.667969 121.777344 296.847656 121.933594 C 297.027344 122.089844 297.167969 122.277344 297.273438 122.492188 C 297.378906 122.707031 297.441406 122.933594 297.457031 123.171875 C 297.65625 126.191406 297.796875 129.207031 297.859375 132.125 C 297.867188 132.367188 297.828125 132.597656 297.742188 132.820312 C 297.65625 133.042969 297.53125 133.242188 297.367188 133.417969 C 297.203125 133.589844 297.011719 133.726562 296.792969 133.824219 C 296.574219 133.921875 296.347656 133.976562 296.105469 133.980469 Z M 296.0625 133.980469 " fill-opacity="1" fill-rule="nonzero"/></g><path fill="#4682b4" d="M 133.722656 274.238281 C 133.605469 274.238281 133.488281 274.226562 133.371094 274.203125 C 131.820312 273.859375 130.296875 273.421875 128.800781 272.886719 C 128.585938 272.800781 128.390625 272.679688 128.21875 272.519531 C 128.050781 272.359375 127.914062 272.171875 127.816406 271.960938 C 127.71875 271.746094 127.664062 271.523438 127.652344 271.292969 C 127.640625 271.058594 127.671875 270.832031 127.75 270.609375 C 127.828125 270.386719 127.941406 270.191406 128.097656 270.015625 C 128.25 269.835938 128.429688 269.695312 128.640625 269.589844 C 128.847656 269.484375 129.070312 269.421875 129.300781 269.402344 C 129.535156 269.382812 129.761719 269.40625 129.988281 269.476562 C 131.324219 269.957031 132.6875 270.351562 134.074219 270.664062 C 134.296875 270.707031 134.5 270.789062 134.6875 270.910156 C 134.875 271.03125 135.035156 271.179688 135.167969 271.359375 C 135.300781 271.539062 135.398438 271.738281 135.457031 271.953125 C 135.515625 272.167969 135.535156 272.386719 135.511719 272.609375 C 135.492188 272.832031 135.429688 273.042969 135.332031 273.242188 C 135.230469 273.441406 135.097656 273.617188 134.933594 273.769531 C 134.765625 273.917969 134.582031 274.035156 134.371094 274.117188 C 134.164062 274.195312 133.949219 274.238281 133.722656 274.238281 Z M 133.722656 274.238281 " fill-opacity="1" fill-rule="nonzero"/></svg>